<?xml version="1.0" encoding="utf-8"?>
<!-- Generator: Adobe Illustrator 21.0.0, SVG Export Plug-In . SVG Version: 6.00 Build 0)  -->
<svg version="1.1" id="Layer_1" xmlns="http://www.w3.org/2000/svg" xmlns:xlink="http://www.w3.org/1999/xlink" x="0px" y="0px"
	 width="3000px" height="2000px" viewBox="0 0 3000 2000" style="enable-background:new 0 0 3000 2000;" xml:space="preserve">
<style type="text/css">
	.st0{fill-rule:evenodd;clip-rule:evenodd;fill:#EDF5FF;}
	.st1{fill-rule:evenodd;clip-rule:evenodd;fill:#D1DFF0;}
	.st2{fill-rule:evenodd;clip-rule:evenodd;fill:#C4DEFF;}
	.st3{fill-rule:evenodd;clip-rule:evenodd;fill:#C9DDF7;}
	.st4{fill-rule:evenodd;clip-rule:evenodd;fill:#C7A24C;}
	.st5{fill-rule:evenodd;clip-rule:evenodd;fill:#DBBA6B;}
	.st6{fill-rule:evenodd;clip-rule:evenodd;fill:#B89647;}
	.st7{fill-rule:evenodd;clip-rule:evenodd;fill:#9C8143;}
	.st8{fill-rule:evenodd;clip-rule:evenodd;fill:#C4DAF2;}
	.st9{fill-rule:evenodd;clip-rule:evenodd;fill:#B3CAE3;}
	.st10{fill-rule:evenodd;clip-rule:evenodd;fill:#FFFFFF;}
	.st11{fill-rule:evenodd;clip-rule:evenodd;fill:#DBECFF;}
	.st12{fill-rule:evenodd;clip-rule:evenodd;fill:#E6E6E6;}
	.st13{fill-rule:evenodd;clip-rule:evenodd;fill:#90C3FF;}
	.st14{fill-rule:evenodd;clip-rule:evenodd;fill:#80A6D1;}
	.st15{fill-rule:evenodd;clip-rule:evenodd;fill:#FFCF61;}
	.st16{fill-rule:evenodd;clip-rule:evenodd;fill:#72ABC4;}
	.st17{fill-rule:evenodd;clip-rule:evenodd;fill:#9CE1FF;}
	.st18{fill-rule:evenodd;clip-rule:evenodd;fill:#5F9AB3;}
	.st19{fill-rule:evenodd;clip-rule:evenodd;fill:#E8A348;}
	.st20{fill-rule:evenodd;clip-rule:evenodd;fill:#CF9447;}
	.st21{fill-rule:evenodd;clip-rule:evenodd;fill:#B5CC5A;}
	.st22{fill-rule:evenodd;clip-rule:evenodd;fill:#CAE072;}
	.st23{fill-rule:evenodd;clip-rule:evenodd;fill:#9AAD4C;}
	.st24{fill-rule:evenodd;clip-rule:evenodd;fill:#5A586B;}
	.st25{fill-rule:evenodd;clip-rule:evenodd;fill:#504E62;}
	.st26{fill-rule:evenodd;clip-rule:evenodd;fill:#69667D;}
	.st27{fill-rule:evenodd;clip-rule:evenodd;fill:#E34949;}
	.st28{fill-rule:evenodd;clip-rule:evenodd;fill:#ED6D6D;}
	.st29{fill-rule:evenodd;clip-rule:evenodd;fill:#C24040;}
	.st30{fill-rule:evenodd;clip-rule:evenodd;fill:#605E70;}
</style>
<g>
	<rect x="0.5" y="0.5" class="st0" width="3000" height="2000"/>
	<g>
		<g>
			<g>
				<polygon class="st1" points="3000.5,838.1 3000.5,1338.3 1500.5,1088.2 				"/>
				<polygon class="st1" points="2821.6,0.5 3000.5,0.5 3000.5,526.3 1500.5,1088.2 				"/>
				<polygon class="st1" points="1907.9,0.5 2396,0.5 1500.5,1088.2 				"/>
				<polygon class="st1" points="1319.2,0.5 1681.8,0.5 1500.5,1088.2 				"/>
			</g>
			<g>
				<polygon class="st1" points="0.5,838.1 0.5,1338.3 1500.5,1088.2 				"/>
				<polygon class="st1" points="179.4,0.5 0.5,0.5 0.5,526.3 1500.5,1088.2 				"/>
				<polygon class="st1" points="1093.1,0.5 605,0.5 1500.5,1088.2 				"/>
			</g>
		</g>
		<g>
			<g>
				<polygon class="st2" points="3000.5,838.1 3000.5,1338.3 1500.5,1088.2 				"/>
				<path class="st2" d="M2909.5,560.4l-1409,527.8l1070.2-881.1C2699.6,308.2,2813.7,427.3,2909.5,560.4z"/>
				<path class="st2" d="M1907.9,0.5h326.9c38.6,18,76.4,37.5,113.3,58.2l-847.6,1029.5L1907.9,0.5z"/>
				<polygon class="st2" points="1319.2,0.5 1681.8,0.5 1500.5,1088.2 				"/>
			</g>
			<g>
				<polygon class="st2" points="0.5,838.1 0.5,1338.3 1500.5,1088.2 				"/>
				<path class="st2" d="M91.5,560.4l1409,527.8L430.3,207.1C301.4,308.2,187.3,427.3,91.5,560.4z"/>
				<path class="st2" d="M1093.1,0.5H766.2c-38.6,18-76.4,37.5-113.3,58.2l847.6,1029.5L1093.1,0.5z"/>
			</g>
		</g>
		<g>
			<g>
				<path class="st3" d="M2828.3,1309.6l-1327.8-221.4L2671,893C2745,1020.2,2798.9,1160.5,2828.3,1309.6z"/>
				<path class="st3" d="M2535.3,700.6l-1034.8,387.6l766.4-631C2366.9,526,2457.2,608,2535.3,700.6z"/>
				<path class="st3" d="M2100.6,359.4l-600.1,728.8l311.9-832.7C1913.3,279.3,2009.8,314.4,2100.6,359.4z"/>
				<path class="st3" d="M1644.1,226.9l-143.6,861.3l-143.6-861.3c47.2-5,95.1-7.6,143.6-7.6S1596.9,221.9,1644.1,226.9z"/>
			</g>
			<g>
				<path class="st3" d="M172.7,1309.6l1327.8-221.4L330,893C256,1020.2,202.1,1160.5,172.7,1309.6z"/>
				<path class="st3" d="M465.7,700.6l1034.8,387.6l-766.4-631C634.1,526,543.8,608,465.7,700.6z"/>
				<path class="st3" d="M900.4,359.4l600.1,728.8l-311.9-832.7C1087.7,279.3,991.2,314.4,900.4,359.4z"/>
			</g>
		</g>
	</g>
	<g>
		<path class="st4" d="M0.5,2000.5V1334c432-70.1,947-110.8,1500-110.8s1068,40.7,1500,110.8v666.5H0.5z"/>
		<path class="st5" d="M0.5,2000.5V1334c120.4-19.5,247.3-36.8,379.6-51.5c-80.6,45.3-125.5,99.2-125.5,159.9
			c0,230.1,643.4,470.8,1437.1,537.5c581.7,48.9,1082.7-9.1,1308.8-134.2v154.7H0.5L0.5,2000.5z M3000.5,1501.2V1334
			c-185.3-30.1-385.8-54.7-598-73.1C2664.5,1326.3,2874.9,1410.5,3000.5,1501.2z"/>
		<path class="st6" d="M0.5,2000.5V1334c183.9-29.8,382.9-54.3,593.5-72.7c-5.3,22.5-8.2,45.2-8.2,68.2
			c0,284,417.2,532.8,1042.3,671H0.5z"/>
		<path class="st7" d="M0.5,2000.5v-385.4c195.9,166.6,531.2,302.8,947.2,385.4H0.5z"/>
	</g>
	<g>
		<g>
			<path class="st1" d="M2414.1,1240.5l-913.6-152.3l756.1-126.1C2323.4,1044.8,2377,1138.7,2414.1,1240.5z"/>
			<path class="st1" d="M2146.1,846.4l-645.6,241.8l454.8-374.5C2024.3,750.3,2088.3,794.9,2146.1,846.4z"/>
			<path class="st1" d="M1848.8,665.2l-348.3,423L1677,616.9C1736.3,627.8,1793.8,644.1,1848.8,665.2z"/>
			<path class="st1" d="M1581.2,604.2l-80.7,484l-80.7-484c26.6-2.2,53.5-3.4,80.7-3.4S1554.6,602,1581.2,604.2z"/>
		</g>
		<g>
			<path class="st1" d="M586.9,1240.5l913.6-152.3L744.4,962.1C677.6,1044.8,624,1138.7,586.9,1240.5z"/>
			<path class="st1" d="M854.9,846.4l645.6,241.8l-454.8-374.5C976.7,750.3,912.7,794.9,854.9,846.4z"/>
			<path class="st1" d="M1152.2,665.2l348.3,423L1324,616.9C1264.7,627.8,1207.2,644.1,1152.2,665.2z"/>
		</g>
	</g>
	<g>
		<ellipse class="st6" cx="1500.5" cy="1786.8" rx="406.3" ry="87.4"/>
		<g>
			<ellipse class="st6" cx="916.7" cy="1599.9" rx="406.3" ry="87.4"/>
			<ellipse class="st6" cx="2084.3" cy="1596.5" rx="406.3" ry="87.4"/>
		</g>
	</g>
	<g>
		<g>
			<g>
				<g>
					<path class="st8" d="M596.6,1532.4h672.1v49.7h0c0,30.3-150.4,54.9-336,54.9c-185.6,0-336-24.6-336-54.9V1532.4z"/>
					<path class="st9" d="M596.6,1532.4h228v101.7c-132.6-7.3-228-27.8-228-52V1532.4z"/>
					<path class="st10" d="M1095.5,1532.4h96v84.7c-26.7,5.3-59.2,9.7-96,13V1532.4z"/>
					<ellipse class="st11" cx="932.6" cy="1532.4" rx="336" ry="54.9"/>
					<ellipse class="st8" cx="932.6" cy="1532.4" rx="283.1" ry="39.4"/>
				</g>
				<path class="st10" d="M596.6,613.5h672.1v918.9h0c0,30.3-150.4,54.9-336,54.9c-185.6,0-336-24.6-336-54.9V613.5z"/>
				<path class="st12" d="M596.6,613.5h167.1v966.4c-99.9-9.5-167.1-27.2-167.1-47.4V613.5z"/>
				<path class="st10" d="M873.9,1462.5h117.4c5.9,0,10.7,4.8,10.7,10.7v0c0,5.9-4.8,10.7-10.7,10.7H873.9
					c-5.9,0-10.7-4.8-10.7-10.7v0C863.2,1467.4,868,1462.5,873.9,1462.5z"/>
				<path class="st10" d="M848.7,1424.8h167.7c5.9,0,10.7,4.8,10.7,10.7v0c0,5.9-4.8,10.7-10.7,10.7H848.7
					c-5.9,0-10.7-4.8-10.7-10.7v0C838,1429.6,842.8,1424.8,848.7,1424.8z"/>
				<g>
					<path class="st13" d="M596.6,613.5h672.1v384h0c0,30.3-150.4,54.9-336,54.9c-185.6,0-336-24.6-336-54.9V613.5z"/>
					<path class="st14" d="M596.6,613.5h167.1V1045c-99.9-9.5-167.1-27.2-167.1-47.4V613.5z"/>
				</g>
				<g>
					<path class="st8" d="M596.6,613.5h672.1v49.7h0c0,30.3-150.4,54.9-336,54.9c-185.6,0-336-24.6-336-54.9V613.5z"/>
					<path class="st9" d="M596.6,613.5h228v101.7c-132.6-7.3-228-27.8-228-52V613.5z"/>
					<path class="st10" d="M1095.5,613.5h96v84.7c-26.7,5.3-59.2,9.7-96,13V613.5z"/>
					<ellipse class="st11" cx="932.6" cy="613.5" rx="336" ry="54.9"/>
					<ellipse class="st8" cx="932.6" cy="613.5" rx="283.1" ry="39.4"/>
				</g>
				<path class="st9" d="M847.7,590.7h123.4c13.2,0,24,10.8,24,24v0c0,13.2-10.8,24-24,24H847.7c-13.2,0-24-10.8-24-24v0
					C823.7,601.5,834.5,590.7,847.7,590.7z"/>
				<path class="st8" d="M855.7,600.3h74.1c7.9,0,14.4,6.5,14.4,14.4v0c0,7.9-6.5,14.4-14.4,14.4h-74.1c-7.9,0-14.4-6.5-14.4-14.4v0
					C841.3,606.8,847.7,600.3,855.7,600.3z"/>
				<polygon class="st15" points="932.6,1136.4 1124.1,1265 932.6,1393.5 741,1265 				"/>
				<g>
					<path class="st16" d="M732.3,1225.6h46.5h307.8v78.7H790.1h-57.8h-9.8c-5.4,0-9.8-4.4-9.8-9.8v-5.2h-17.5v-31.9
						c0-17.5,14.3-31.9,31.9-31.9H732.3z"/>
					<polygon class="st16" points="1170,1211.1 1027.6,1265 1170,1318.8 1123.8,1265 					"/>
					<circle class="st17" cx="726.9" cy="1250.4" r="7.2"/>
					<polygon class="st18" points="839,1225.6 814.6,1250 790.3,1225.6 					"/>
					<polygon class="st18" points="899.1,1225.6 874.8,1250 850.4,1225.6 					"/>
					<polygon class="st18" points="959.3,1225.6 934.9,1250 910.5,1225.6 					"/>
					<polygon class="st18" points="1019.4,1225.6 995,1250 970.7,1225.6 					"/>
				</g>
				<ellipse class="st19" cx="932.6" cy="906.6" rx="145.5" ry="53.2"/>
				<path class="st19" d="M1268.6,932.4v65.1h0c0,30.3-150.4,54.9-336,54.9c-185.6,0-336-24.6-336-54.9v-65.1
					c0,30.3,150.4,54.9,336,54.9C1118.2,987.2,1268.6,962.7,1268.6,932.4L1268.6,932.4z"/>
				<path class="st20" d="M763.7,979.8v65.1c-99.9-9.5-167.1-27.2-167.1-47.4v-65.1C596.6,952.6,663.7,970.3,763.7,979.8z"/>
				<path class="st16" d="M850.7,1487h163.7c7.5,0,13.7,6.2,13.7,13.7l0,0c0,7.5-6.2,13.7-13.7,13.7H850.7
					c-7.5,0-13.7-6.2-13.7-13.7l0,0C837,1493.2,843.2,1487,850.7,1487z"/>
			</g>
			<polygon class="st15" points="1138.4,950.1 1160.8,968.5 1191.7,967.5 1199.1,995.5 1224.7,1012.8 1214.2,1039.9 1224.7,1068.9 
				1200.3,1084.6 1191.7,1114.3 1162.8,1112.7 1138.4,1131.6 1115.9,1113.3 1085,1114.3 1077.6,1086.3 1052.1,1068.9 1062.6,1041.9 
				1052.1,1012.8 1076.5,997.1 1085,967.5 1114,969.1 			"/>
		</g>
		<g>
			<g>
				<path class="st8" d="M2404.4,1532.4h-672.1v49.7h0c0,30.3,150.4,54.9,336,54.9c185.6,0,336-24.6,336-54.9V1532.4z"/>
				<path class="st9" d="M2404.4,1532.4h-228v101.7c132.6-7.3,228-27.8,228-52V1532.4z"/>
				<path class="st10" d="M1905.5,1532.4h-96v84.7c26.7,5.3,59.2,9.7,96,13V1532.4z"/>
				<ellipse class="st11" cx="2068.4" cy="1532.4" rx="336" ry="54.9"/>
				<ellipse class="st8" cx="2068.4" cy="1532.4" rx="283.1" ry="39.4"/>
			</g>
			<g>
				<path class="st10" d="M2404.4,613.5h-672.1v918.9h0c0,30.3,150.4,54.9,336,54.9c185.6,0,336-24.6,336-54.9V613.5z"/>
				<path class="st12" d="M2404.4,613.5h-167.1v966.4c99.9-9.5,167.1-27.2,167.1-47.4V613.5z"/>
			</g>
			<path class="st21" d="M2404.4,613.5h-672.1v384h0c0,30.3,150.4,54.9,336,54.9c185.6,0,336-24.6,336-54.9V613.5z"/>
			<path class="st22" d="M1987.4,613.5h-137.2v425.8c39,5.4,85.7,9.5,137.2,11.5V613.5z"/>
			<path class="st23" d="M2404.4,613.5h-167.1V1045c99.9-9.5,167.1-27.2,167.1-47.4V613.5z"/>
			<g>
				<path class="st8" d="M2404.4,613.5h-672.1v49.7h0c0,30.3,150.4,54.9,336,54.9c185.6,0,336-24.6,336-54.9V613.5z"/>
				<path class="st9" d="M2404.4,613.5h-228v101.7c132.6-7.3,228-27.8,228-52V613.5z"/>
				<path class="st10" d="M1905.5,613.5h-96v84.7c26.7,5.3,59.2,9.7,96,13V613.5z"/>
				<ellipse class="st11" cx="2068.4" cy="613.5" rx="336" ry="54.9"/>
				<ellipse class="st8" cx="2068.4" cy="613.5" rx="283.1" ry="39.4"/>
			</g>
			<g>
				<path class="st9" d="M2153.3,590.7h-123.4c-13.2,0-24,10.8-24,24v0c0,13.2,10.8,24,24,24h123.4c13.2,0,24-10.8,24-24v0
					C2177.3,601.5,2166.5,590.7,2153.3,590.7z"/>
				<path class="st8" d="M2145.3,600.3h-74.1c-7.9,0-14.4,6.5-14.4,14.4v0c0,7.9,6.5,14.4,14.4,14.4h74.1c7.9,0,14.4-6.5,14.4-14.4
					v0C2159.7,606.8,2153.3,600.3,2145.3,600.3z"/>
			</g>
			<g>
				<path class="st24" d="M1732.4,1268.4v264h0c0,30.3,150.4,54.9,336,54.9c185.6,0,336-24.6,336-54.9v-264
					c0,30.3-150.4,54.9-336,54.9C1882.8,1323.3,1732.4,1298.7,1732.4,1268.4L1732.4,1268.4z"/>
				<path class="st25" d="M2237.3,1315.8v264c99.9-9.5,167.1-27.2,167.1-47.4v-264C2404.4,1288.6,2337.3,1306.3,2237.3,1315.8z"/>
			</g>
			<path class="st26" d="M1850.3,1574.1c39,5.4,85.7,9.5,137.2,11.5v-264c-51.4-2.1-98.1-6.1-137.2-11.5V1574.1z"/>
			<g>
				<path class="st21" d="M1732.4,1268.4v78.9h0c0,30.3,150.4,54.9,336,54.9c185.6,0,336-24.6,336-54.9v-78.9
					c0,30.3-150.4,54.9-336,54.9C1882.8,1323.3,1732.4,1298.7,1732.4,1268.4L1732.4,1268.4z"/>
				<path class="st23" d="M2237.3,1315.8v78.9c99.9-9.5,167.1-27.2,167.1-47.4v-78.9C2404.4,1288.6,2337.3,1306.3,2237.3,1315.8z"/>
			</g>
			<path class="st22" d="M1850.3,1389c39,5.4,85.7,9.5,137.2,11.5v-78.9c-51.4-2.1-98.1-6.1-137.2-11.5V1389z"/>
			<ellipse class="st24" cx="2082.2" cy="1190.4" rx="194.6" ry="91.7"/>
			<g>
				<ellipse class="st21" cx="2082.2" cy="1145.4" rx="108.4" ry="16.7"/>
				<ellipse class="st21" cx="2082.2" cy="1190.4" rx="108.4" ry="16.7"/>
				<ellipse class="st21" cx="2082.2" cy="1235.4" rx="108.4" ry="16.7"/>
			</g>
			<path class="st24" d="M2197.1,866.8h106.3v174.4l-39.8-35c-7.3-6.5-19.4-6.4-26.8,0.1l-39.7,35V866.8z"/>
			<circle class="st19" cx="2250.2" cy="852.5" r="106.3"/>
			<path class="st10" d="M1990.7,1497.7h134.9c2.3,0,4.1,1.9,4.1,4.1v26.5c0,2.3-1.9,4.1-4.1,4.1h-134.9c-2.3,0-4.1-1.9-4.1-4.1
				v-26.5C1986.6,1499.5,1988.4,1497.7,1990.7,1497.7z"/>
		</g>
	</g>
	<g>
		<g>
			<path class="st8" d="M1164.5,1727.1h672.1v49.7h0c0,30.3-150.4,54.9-336,54.9c-185.6,0-336-24.6-336-54.9V1727.1z"/>
			<path class="st9" d="M1164.5,1727.1h228v101.7c-132.6-7.3-228-27.8-228-52V1727.1z"/>
			<path class="st10" d="M1663.4,1727.1h96v84.7c-26.7,5.3-59.2,9.7-96,13V1727.1z"/>
			<ellipse class="st11" cx="1500.5" cy="1727.1" rx="336" ry="54.9"/>
			<ellipse class="st8" cx="1500.5" cy="1727.1" rx="283.1" ry="39.4"/>
		</g>
		<path class="st10" d="M1164.5,808.1h672.1v918.9h0c0,30.3-150.4,54.9-336,54.9c-185.6,0-336-24.6-336-54.9V808.1z"/>
		<path class="st12" d="M1164.5,808.1h167.1v966.4c-99.9-9.5-167.1-27.2-167.1-47.4V808.1z"/>
		<path class="st27" d="M1164.5,808.1h672.1v171.4h0c0,30.3-150.4,54.9-336,54.9c-185.6,0-336-24.6-336-54.9V808.1z"/>
		<path class="st28" d="M1641.9,808.1h102.9v209.1c-29.1,5-64,9.2-102.9,12.1V808.1z"/>
		<path class="st29" d="M1164.5,808.1h167.1V1027c-99.9-9.5-167.1-27.2-167.1-47.4V808.1z"/>
		<path class="st27" d="M1836.5,1339.6v387.5h0c0,30.3-150.4,54.9-336,54.9c-185.6,0-336-24.6-336-54.9v-387.5
			c0,30.3,150.4,54.9,336,54.9C1686.1,1394.5,1836.5,1369.9,1836.5,1339.6L1836.5,1339.6z"/>
		<path class="st28" d="M1744.8,1764.7c-29.1,5-64,9.2-102.9,12.1v-387.5c38.9-3,73.8-7.1,102.9-12.1V1764.7z"/>
		<path class="st29" d="M1331.6,1774.5c-99.9-9.5-167.1-27.2-167.1-47.4v-387.5c0,20.2,67.2,37.9,167.1,47.4V1774.5z"/>
		<path class="st25" d="M1611.1,885.7v216.4c-29.8,32.9-68.4,52.8-110.6,52.8c-42.2,0-80.8-19.9-110.6-52.8V885.7H1611.1z"/>
		<path class="st30" d="M1589.1,907.6h-177.3v185.7c23.8,23.8,54.3,39.6,88.6,39.6s64.8-15.8,88.6-39.6V907.6z"/>
		<g>
			<path class="st8" d="M1164.5,808.1h672.1v49.7h0c0,30.3-150.4,54.9-336,54.9c-185.6,0-336-24.6-336-54.9V808.1z"/>
			<path class="st9" d="M1164.5,808.1h228v101.7c-132.6-7.3-228-27.8-228-52V808.1z"/>
			<path class="st10" d="M1663.4,808.1h96v84.7c-26.7,5.3-59.2,9.7-96,13V808.1z"/>
			<ellipse class="st11" cx="1500.5" cy="808.1" rx="336" ry="54.9"/>
			<ellipse class="st8" cx="1500.5" cy="808.1" rx="283.1" ry="39.4"/>
		</g>
		<path class="st10" d="M1465.8,1003.1h69.4c9.7,0,17.6,7.9,17.6,17.6l0,0c0,9.7-7.9,17.6-17.6,17.6h-69.4
			c-9.7,0-17.6-7.9-17.6-17.6l0,0C1448.2,1011,1456.1,1003.1,1465.8,1003.1z"/>
		<path class="st10" d="M1441.8,1657.2h117.4c5.9,0,10.7,4.8,10.7,10.7l0,0c0,5.9-4.8,10.7-10.7,10.7h-117.4
			c-5.9,0-10.7-4.8-10.7-10.7l0,0C1431.1,1662,1435.9,1657.2,1441.8,1657.2z"/>
		<path class="st9" d="M1415.6,785.4h123.4c13.2,0,24,10.8,24,24v0c0,13.2-10.8,24-24,24h-123.4c-13.2,0-24-10.8-24-24v0
			C1391.6,796.2,1402.4,785.4,1415.6,785.4z"/>
		<path class="st8" d="M1423.6,795h74.1c7.9,0,14.4,6.5,14.4,14.4l0,0c0,7.9-6.5,14.4-14.4,14.4h-74.1c-7.9,0-14.4-6.5-14.4-14.4
			l0,0C1409.2,801.5,1415.7,795,1423.6,795z"/>
		<path class="st21" d="M1836.5,1315.5v92.6h0c0,30.3-150.4,54.9-336,54.9c-185.6,0-336-24.6-336-54.9v-92.6
			c0,30.3,150.4,54.9,336,54.9C1686.1,1370.4,1836.5,1345.8,1836.5,1315.5L1836.5,1315.5z"/>
		<g>
			<path class="st10" d="M1683.1,1349.4c0,88.2-81.7,159.6-182.6,159.6c-100.8,0-182.6-71.5-182.6-159.6H1683.1z"/>
			<ellipse class="st15" cx="1500.5" cy="1349.4" rx="182.6" ry="18.5"/>
		</g>
		<path class="st30" d="M1403.3,1245.5l-32.6-38.6c3.2-2.3,7.6-3.7,13.1-3.7c8.7,0,16.9,6.4,16.9,12.7v1.8c0,0.9,0.8,1.6,1.6,1.6
			c0.9,0,1.6-0.8,1.6-1.6v-16.1c0-0.9-0.8-1.5-1.6-1.5c-0.9,0-1.6,0.7-1.6,1.5v6c-3.8-4.6-10.4-7.7-16.9-7.7
			c-13.5,0-21.7,7.8-21.7,17.8c0,5.2,2.4,10.9,7,16.3l30.9,36.9c-3.6,3.5-9,5.8-15.6,5.8c-11,0-20.7-6.9-20.7-14.6v-3.1
			c0-0.9-0.8-1.5-1.6-1.5c-0.9,0-1.6,0.7-1.6,1.5v19.3c0,0.9,0.8,1.5,1.6,1.5c0.9,0,1.6-0.7,1.6-1.5v-7.4c4.5,5.6,12.9,9,20.7,9
			c14.5,0,24-10,24-21C1408.4,1254.4,1406.9,1249.8,1403.3,1245.5L1403.3,1245.5z M1455.2,1199.7c-23.9,0-39.8,16.1-39.8,40.2
			c0,23.9,15.9,40,39.8,40c23.8,0,39.7-16.1,39.7-40C1494.9,1215.9,1479,1199.7,1455.2,1199.7L1455.2,1199.7z M1435.5,1272v-64.4
			c5.5-3.1,12.2-4.8,19.6-4.8c7.5,0,14,1.8,19.5,4.8v64.4c-5.5,3.1-12.1,4.8-19.5,4.8C1447.7,1276.9,1441,1275.1,1435.5,1272
			L1435.5,1272z M1574,1201.5h-27.8c-0.9,0-1.8,0.5-1.8,1.4c0,0.9,0.9,1.6,1.8,1.6h6.4v68.6c-4.1,2.2-8.8,3.5-13.7,3.5
			c-4.9,0-9.7-1.3-13.7-3.5v-68.6h5.2c0.9,0,1.5-0.7,1.5-1.5c0-0.9-0.7-1.5-1.5-1.5h-28.4c-0.9,0-1.5,0.7-1.5,1.5
			c0,0.9,0.7,1.5,1.5,1.5h5.2v43.6c0,17.6,14.3,31.8,31.8,31.8c17.6,0,31.8-14.3,31.8-31.8v-43.6h3.3c0.8,0,1.5-0.8,1.5-1.6
			C1575.6,1202,1574.8,1201.5,1574,1201.5L1574,1201.5z M1618.8,1201.5h-31.9c-1,0-1.6,0.7-1.6,1.6c0,0.9,0.7,1.4,1.6,1.4h4.3v70.7
			h-5.3c-0.9,0-1.5,0.5-1.5,1.5c0,1,0.7,1.5,1.5,1.5h27.8c0.9,0,1.5-0.5,1.5-1.5c0-1-0.7-1.5-1.5-1.5h-5.4v-28.1h10.5
			c13.8,0,21.8-9.1,21.8-22.9C1640.6,1210.6,1632.6,1201.5,1618.8,1201.5L1618.8,1201.5z M1608.2,1244.1v-39.5h10.5
			c1.6,0,3.2,0.1,4.6,0.4v38.6c-1.4,0.3-3,0.4-4.6,0.4H1608.2z"/>
		<path class="st10" d="M1416.6,1619.5h167.7c5.9,0,10.7,4.8,10.7,10.7v0c0,5.9-4.8,10.7-10.7,10.7h-167.7
			c-5.9,0-10.7-4.8-10.7-10.7v0C1405.9,1624.3,1410.8,1619.5,1416.6,1619.5z"/>
	</g>
	<polygon class="st15" points="2684.4,914.8 2703,937.6 2730.4,948.1 2714.4,972.8 2712.8,1002.1 2684.4,994.6 2656.1,1002.1 
		2654.5,972.8 2638.5,948.1 2665.9,937.6 	"/>
	<polygon class="st15" points="2284.3,348 2315.2,370.1 2351.7,376 2342.4,408.1 2352.1,442.3 2315.5,440 2284.8,455.2 
		2271.5,421.7 2243,396.9 2271.3,378.5 	"/>
	<polygon class="st15" points="529.3,262.1 502.5,276 473.8,278.1 475.9,301.4 463.3,325.1 491.3,325.6 512.2,338.2 527.5,315.2 
		553,299.3 534.4,284.5 	"/>
	<g>
		<path class="st0" d="M1318.3,327.4c3.5-1.5,7.1-2.6,10.8-3.5c3-0.7,5.7-0.9,8.7-0.5c2.6-0.1,5.3,0,7.9,0.4c0.5,0.1,1,0.1,1.4,0.2
			c0.7-2.5,1.6-5,2.7-7.5c0.5-1.2,1-2.4,1.3-3.6c0.5-1.7,1-3.1,1.8-4.7c1.7-3.4,3.3-7,4.6-10.5c2-5.2,4.4-10.3,7.1-15.2
			c2.4-5.2,5.1-10.3,8.1-15.1c2.2-3.6,4.4-7.2,6.4-10.9c1-1.9,2.1-3.3,3.5-4.9c0.1-0.1,0.3-0.3,0.2-0.1c2.3-5.2,5.4-10,9.5-14
			c2.2-2.2,4.4-3.8,7-5c5.2-3.7,11.5-5.7,18-5.7c0.2,0,0.5,0,0.7,0c3.4-0.3,6.8,0.2,10.2,1.3c8.9,2.9,15.6,9.7,18.7,18.5
			c1.4,3.9,2.2,7.9,2.4,12c0.2,3.8,0,7.7-0.7,11.4c-0.1,0.6-0.2,1.1-0.4,1.7c0,2.1-0.3,4.3-0.8,6.4c-0.2,0.7-0.3,1.4-0.5,2.1
			c-0.4,3.9-1.6,7.7-3.5,11.1c-0.4,1-0.9,2-1.4,3c-0.7,2.5-1.7,4.8-3.1,7.1c-0.9,2.9-2.2,5.5-3.9,7.8c-0.1,0.1-0.1,0.2-0.2,0.3
			c-0.3,0.6-0.6,1.3-1,1.9c-0.9,2.6-2.3,5-3.9,7.1c-0.8,1.9-1.8,3.7-3,5.5c-1.7,2.4-3.4,4.8-4.9,7.2c-0.6,1-1.1,2-1.5,3.1
			c-0.7,1.8-1.4,3.3-2.2,4.6c-0.1,0.2-0.1,0.4-0.2,0.5c-0.5,1.4-0.9,2.9-1.3,4.4c-0.5,1.9-1.1,3.5-1.8,5.1c0,0.1,0,0.1,0,0.2
			c-0.1,0.3-0.2,0.5-0.2,0.8c-0.5,1.4-1,2.7-1.5,3.9c-0.1,0.3-0.2,0.6-0.3,0.8c-0.1,2.4-0.6,4.9-1.5,7.3c-0.3,0.9-0.7,1.9-1,2.8
			c3.4-1.5,6.8-3,10.2-4.5c5-2.1,10-4.1,15.2-5.8c10.7-3.6,21.9,0,28.6,8.9c1.4,1.9,2.7,3.9,3.8,6.1c4.5,8.9,3.4,18.8-1.6,26.7
			c-1.8,3.4-4.4,6.4-7.5,8.7c-1.4,1.1-2.9,2.1-4.5,2.9c-0.1,0-0.1,0.1-0.2,0.1c-0.5,0.4-1.1,0.7-1.6,1c-2,1.6-4.3,3-6.7,4
			c-0.5,0.4-1.1,0.7-1.7,1.1c-0.2,0.2-0.4,0.3-0.6,0.5c-2,1.9-4.2,3.6-6.4,5.2c-2.2,1.6-4.6,2.9-7,3.8c-0.3,0.2-0.7,0.4-1,0.5
			c-7.9,3.9-16.9,3.4-24.1-0.7c-1.9,0.7-3.8,1.4-5.7,2.1c-8.7,3.1-17.9,3.4-26.8,1.2c-7-1.8-12.4-5.9-16-12.1
			c-0.6-1.1-1.2-2.3-1.8-3.5c-3.4,3.3-6.9,6.6-10.5,9.8c-6,5.4-12.3,10.6-18.8,15.5c-2.4,1.8-4.8,3.1-7.6,4
			c-2.3,1.1-4.8,1.9-7.3,2.4c-1.3,0.4-2.6,0.7-4,1c-2.7,0.4-5.3,0.9-8,1.2c-5.7,0.8-11.5,0.4-17.1-1.1c-1.3-0.4-2.6-0.8-3.9-1.4
			c-3.9-1.2-7.6-3.1-11-5.6c-5.1-3.7-9.1-8.4-11.6-14.1c-0.2-0.4-0.4-0.7-0.6-1.1c-2.8,2.8-5.7,5.4-8.7,7.9c-4,3.3-8.2,6.2-12.7,8.8
			c-5.4,3.2-11.3,5.3-17.5,5.7c-5.2,1.3-10.6,1.8-16,1.3c-6.4-0.6-12.5-2.4-18.2-5.5c-6.1-3.3-11.2-7.9-15.1-13.6
			c-2.2-3.1-3.9-6.4-5.1-9.9c-0.8,0.8-1.6,1.6-2.5,2.3c-0.6,0.6-1.2,1.2-1.8,1.9c-3.1,3.2-6.4,6.2-9.8,9.1c-4,3.3-8.2,6.2-12.7,8.8
			c-5.4,3.2-11.3,5.3-17.5,5.7c-5.2,1.3-10.6,1.8-16,1.3c-6.4-0.6-12.5-2.4-18.2-5.5c-6.1-3.3-11.2-7.9-15.1-13.6
			c-3.6-5.2-6-11.1-7.1-17.3c-0.6-2.6-0.9-5.3-0.9-8c0-1.9,0.2-3.9,0.5-5.7c0-1.2,0.2-2.4,0.4-3.6c-4.3,1-8.7,2.1-13,3.1
			c-8.6,2.6-17.3,5.1-25.9,7.7c-8.5,2.5-17,5-25.4,7.4l-12.3,4.2c-0.3,0.1-0.5,0.2-0.8,0.3c-2.4,1.4-5,2.6-7.6,3.6
			c-0.3,0.1-0.6,0.2-0.9,0.3c-0.9,0.3-1.9,0.7-2.8,1c-1.6,0.6-3.2,1.2-4.9,1.6c-1.5,0.8-3.2,1.4-4.8,1.9c-2.2,0.7-4.4,1-6.6,1.1
			l-7.1,1.8c-1.3,0.4-2.6,0.9-3.9,1.3c-2.8,0.9-5.6,1.7-8.5,2.2c-1.5,2.9-2.9,5.9-4.5,8.8c-1.2,2.7-2.3,5.3-3.5,8
			c-1.5,3.3-3.1,6.4-5.1,9.4c-1.2,2.8-2.6,5.6-4.2,8.2c-1.4,2.4-2.8,4.7-4.3,6.9c-1.1,2.9-2.7,5.5-4.6,7.9c-0.4,0.5-0.7,1-1.1,1.4
			c-0.8,2-1.9,3.8-3.2,5.6c-2.3,6.4-5.8,12.1-10.8,17c-6.8,6.6-15.4,11.1-24.2,10.8c-5.3,1.6-10.8,1.4-16.3-0.7
			c-6.9-2.6-11.9-7.5-14.7-14.4c-3.4-8.5-3.8-17.6-1.2-26.3c1.2-4.1,2.7-8.2,4.4-12.2l2.1-5.4c0.3-0.8,0.6-1.4,1-2.2
			c0.1-0.1,0.1-0.3,0.2-0.4c0.7-2.2,1.7-4.4,2.8-6.4c2.3-5.8,4.7-11.6,7.2-17.3c2.8-6.2,5.7-12.5,8.7-18.6c1-2.2,2.1-4.5,3.2-6.7
			c0.4-2.8,1.2-5.2,2.6-7.8c7.1-13.5,13.8-27.3,20.1-41.2c2.9-6.3,5.8-12.5,8.8-18.8c-5-0.6-10-2.6-14.3-5.7
			c-5-3.7-9.1-8.5-11.6-14.2c-2.6-5.9-3.8-12.3-3.8-18.7c0-6.5,1-13,4-18.9c2.5-5,6.1-8.6,11.1-11.2c5.9-3.1,12-5.7,18.2-8
			c5.2-1.9,10.4-3.7,15.7-5.4c10.2-3.7,20.3-7.4,30.5-11.2c10.6-4,21.4-7.7,32.2-11.1c4.3-1.6,8.7-3,13.2-4.4
			c4.2-1.2,8.3-2.4,12.5-3.5c2.8-1,5.7-1.8,8.7-2.5c2.5-0.6,4.9-1.1,7.4-1.7c2.7-1,5.4-1.7,8.2-2.1l4.2-1c3.5-1.2,7.2-2.2,10.8-2.9
			c2.2-0.4,4.4-0.9,6.6-1.5c0.2-0.1,0.4-0.1,0.5-0.2c2.6-1,5.3-1.6,8-1.9c1.2-0.4,2.4-0.7,3.6-1c1.5-0.5,3.1-0.9,4.6-1.3
			c0.8-0.2,1.6-0.3,2.3-0.4c0.1,0,0.1,0,0.2-0.1c2.9-1,5.9-1.5,8.9-1.6c0.9-0.2,1.8-0.4,2.7-0.7c2.8-0.7,5.6-1.2,8.5-1.6
			c1-0.2,2-0.3,3-0.4c0.4-0.1,0.8-0.2,1.2-0.3c6.8-1.4,13.7-2.6,20.6-3.5c6.3-0.8,12.6-1.6,18.9-2.4c0.9-0.2,1.9-0.4,2.8-0.5
			c1.6-0.3,3.1-0.5,4.7-0.8c3.8-0.6,7.6-0.9,11.4-1.1c3.9-0.1,7.7-0.1,11.6,0.2c1.4,0.1,2.7,0.3,4,0.6c2.1,0.1,4.2,0.3,6.2,0.6
			c0.4,0.1,0.7,0.1,1.2,0.2c8.2,1.8,15.5,6,21.1,12.2c3.3,3.6,5.2,7.4,6.2,12.2c0.6,2.8,0.7,5.7,0.4,8.4c1.5,8.4-1,16.4-7.1,22.5
			c-1.5,1.5-3.1,2.8-4.8,3.8c-2.4,2.2-4.9,3.8-7.9,5c-3.2,1.3-6.5,2-9.8,2.3c-0.4,0.1-0.8,0.2-1.2,0.3c-2.6,0.7-5.2,1.1-7.9,1.1
			c-1.1,0-2.1,0-3.2,0c-0.3,0-0.5,0.1-0.8,0.1c-2.2,0.3-4.5,0.7-6.7,1.3c-3,0.8-6.1,1.5-9.2,2.1c-2,0.6-4,1.1-6.1,1.5
			c-1.2,0.2-2.4,0.4-3.6,0.5c-2.5,0.7-5.1,1.3-7.6,1.9c-3.2,0.8-6.5,1.4-9.8,2c-9.3,2.9-18.7,5.1-28.3,6.9
			c-8.6,1.6-17.1,3.4-25.6,5.6c-0.2,0-0.3,0.1-0.5,0.1c-7.2,1.7-14.3,3.3-21.5,4.9c-6.9,1.5-13.8,3.1-20.7,4.7
			c-10.7,2.8-21.4,6-31.8,9.7c1.1,8.9-0.4,17.5-6.3,24.6c-0.2,0.2-0.4,0.5-0.5,0.8c-2,4.1-3.7,8.4-5.3,12.7c1.8-0.6,3.6-1.2,5.4-1.7
			c3-1.3,6.3-2.2,9.7-3.1c4.5-1.1,9-2.3,13.5-3.4c5-1.3,9.9-2.5,15-3.5c2.5-0.5,4.9-1.1,7.4-1.6c5.5-1.6,11.1-3,16.7-4.3
			c5.9-1.4,11.9-2.6,17.9-3.5c3.5-0.7,7.1-1.1,10.6-1.2c2.6-0.1,5.1-0.2,7.7-0.2c4.9,0,9.2,1.2,13.3,3.7c1.1,0.4,2.1,0.8,3.1,1.4
			c0.1-0.1,0.1-0.1,0.2-0.2c4.7-3.9,10.2-6.7,16.2-8.1c7.1-1.6,14.2-0.6,20.4,2.4c1.5,0.1,3.1,0.3,4.6,0.5c2.4,0.4,4.8,1.1,7.2,1.8
			c1.6,0.5,3.3,1.1,4.9,1.8c1.4,0.6,2.7,1.2,4,1.9c6-0.9,12.1-1.6,18.1-2.2c6.4-0.6,12.8-0.9,19.2-0.7c2.3,0,4.5,0.2,6.8,0.5
			c4.1-2.8,8.6-4.9,13.5-6c7.1-1.6,14.2-0.6,20.4,2.4c1.5,0.1,3.1,0.3,4.6,0.5c2.4,0.4,4.8,1.1,7.2,1.8c1.6,0.5,3.3,1.1,4.9,1.8
			c1.4,0.6,2.7,1.2,4,1.9c6-0.9,12.1-1.6,18.1-2.2c6.4-0.6,12.8-0.9,19.2-0.7c6.7,0.1,13.4,1.1,19.5,3.8
			C1314.8,326,1316.6,326.6,1318.3,327.4L1318.3,327.4z M1878,318.8c-1.7-0.1-3.4,0-5.1,0.1c-2,0.2-3.9,0.4-5.9,0.6
			c-6.2,0.5-12.4,1.6-18.5,3.1c-5-5.1-11.7-8.2-18.9-9c-0.2,0-0.4,0-0.6-0.1c-1.7-0.3-3.4-0.4-5.1-0.4c-3.4,0-6.7,0.6-9.8,1.8
			c-2.2,0.6-4.4,1.5-6.4,2.6c-2.1,0.8-3.9,1.9-5.6,3.1c2.4-8.1,3.6-16.5,2.6-25c0-0.3-0.1-0.6-0.1-0.9c-0.9-6.2-2.6-12.3-5.1-18.1
			c-2-4.6-4.2-9-6.8-13.3c-0.1-0.2-0.3-0.4-0.4-0.7c-2.5-3.9-5.3-7.6-8.1-11.3c-3.6-4.5-7.7-8.6-12.2-12.2
			c-8.6-6.9-18.5-11.6-29.1-14.6c-9.4-2.6-19.1-4.4-28.8-5.5c-9.6-1.1-19.3-1.5-29-1.4c-8.3,0.1-16.5,0.4-24.7,0.8
			c-5.5,0.3-11.1,0.7-16.6,1.4c-6.3-5.5-14.1-8.4-22.3-9.7c-6.6-1-12.5,0.3-18,4c0,0-0.1,0.1-0.1,0.1c-2.1,0.9-4,1.9-5.8,3.2
			c-4,2.3-7.5,5.6-10.1,9.7c-0.9,1.4-1.7,2.8-2.4,4.2c-9.3,2.6-18.4,5.6-27.4,9.1c-11.8,4.5-23.5,9.2-35.2,14.1
			c-4.9,2.1-9.9,4.1-14.8,6.3c-5.1,2.2-10.1,4.5-15,6.9c-0.8,0.4-1.4,0.7-2.1,1.1c-2.6,1.6-5.3,3-8,4.4c-3.6,1.8-7.2,3.7-10.7,5.7
			c-0.5,0.3-0.9,0.5-1.3,0.8c-0.9,0.4-1.8,0.7-2.7,1.1c-2.9,1.2-5.3,2.6-7.6,4.7c-0.5,0.4-0.9,0.7-1.4,1c-8,5.8-13.4,14.2-13.4,24.4
			c0,8.5,3.9,15.8,10.1,21.4c0.5,0.5,1,0.9,1.5,1.4c4.2,4.2,9.3,7.3,15.1,8.7c3.3,1.7,6.8,2.8,10.5,3.1c9.2,1.1,18.3-1.1,25.6-7
			c1.1-0.9,2.2-1.7,3.4-2.5c0.4-0.3,0.8-0.5,1.2-0.8c2-0.8,4-1.6,5.9-2.6c4.2-1.6,8.1-3.8,11.6-6.7c0.7-0.6,1.4-1.1,2.2-1.6
			c4.7-2.7,9.5-5.4,14.4-7.7c1.3-0.6,2.6-1.2,3.8-1.8c-2.9,8-5.7,16.1-8.6,24.1c-1.4,2.7-2.5,5.7-3.1,8.7c-0.1,0.4-0.1,0.8-0.2,1.1
			c-0.8,2-1.5,4.1-2,6.2c-1.2,4-2.6,7.9-4.1,11.8c-2.1,5.5-4.1,11-6.1,16.5c-2.1,5.8-4.2,11.6-6.2,17.5c-0.5,1.4-0.9,2.8-1.4,4.2
			c-5.4,2.4-10.8,4.7-16.2,6.9c-8.8,3.6-17.5,7.4-26.1,11.4c-9.1,4.2-17.9,8.9-26.5,13.9c-9.5,5.6-18.5,12-27.1,18.8
			c-1.2,0.9-2.1,1.8-3.1,2.9c-2.8,2.1-5.3,4.5-7.4,7.3c-2.3,2.2-4.4,4.4-6.6,6.7c-4.4,4.8-8,10.2-10.6,16.2
			c-0.1,0.3-0.2,0.5-0.3,0.7c-0.1,0.3-0.3,0.7-0.5,1c-0.3,0.6-0.7,1.2-1.1,1.8c-1.8,2.7-2.9,5.2-3.6,8.3c-2.8,11.8-1,23.8,7.3,33
			c4.1,4.5,8.9,8.2,14.3,10.9c0.5,0.2,0.9,0.4,1.4,0.6c3.1,1.3,6.3,2.3,9.6,2.8l0.4,0.2c1.3,0.6,2.4,1,3.8,1.3
			c11.5,3.1,23.3,4.1,35.1,3.3c9.1-0.6,18.1-1.6,27.1-3.2c2.6-0.2,5.2-0.8,7.7-1.6c2.8-0.3,5.4-1,7.9-2.1c2.6-0.5,5.1-1.1,7.5-2
			c2.2-0.8,4.4-1.4,6.6-2.1c0.4-0.1,0.7-0.2,1.1-0.3c1.9-0.6,3.7-1.4,5.3-2.4c5-1.4,10-3,14.9-5c4.6-1.8,9.1-3.7,13.6-5.7
			c2.3-0.5,4.5-1.3,6.7-2.6c0.9-0.5,1.8-0.8,2.8-1.1c3.3-1,6.4-2.3,9.3-4c2.9-0.8,5.8-2.1,8.4-4c1.5-0.7,3-1.3,4.4-1.9
			c1.3-0.5,2.5-1.1,3.8-1.7c3.2-0.8,6.1-2.2,8.5-4c0.5-0.2,1.1-0.4,1.6-0.6c3.4-1.2,6.8-2.6,10-4.2c4.7-1.7,9.3-3.9,13.6-6.4
			c2-1.2,4-2.4,5.9-3.6c3.7-1.1,7.1-2.9,10.2-5.3c6.1-2.9,12-6.4,17.4-10.5c3.4-2.6,7-4.9,10.8-7c0.9-0.5,1.7-1,2.5-1.5
			c4.6-3.2,9.1-6.6,13.6-10c3.8-2.9,7.7-5.8,11.6-8.6c1.5-1.1,3-2.2,4.5-3.2c2-1.4,3.9-2.9,5.7-4.4c0.1-0.1,0.2-0.1,0.3-0.2
			c3-1.7,5.7-3.8,8.1-6.2c1.3-0.9,2.5-1.9,3.7-2.9c1.5-1.3,3-2.6,4.4-4.1c2.7-1.9,5.2-4,7.7-6.3c2.4-2.2,4.8-4.5,7.1-6.8
			c1.5-1.3,3-2.5,4.5-3.8c1.9-0.4,3.8-0.7,5.7-1.1c5.1-1,10.2-2.1,15.3-3.3c1.6-0.4,3.1-0.7,4.7-1c-0.8,10.7,3.1,20.9,11.4,28.1
			c8.8,7.5,20.1,9.5,30.7,6.2c6.4-1.4,12.1-5.1,16.5-10.3c1.3-1.5,2.4-3,3.5-4.5c2.3-2.9,4.1-6.2,5.5-9.8c1.2-3,2.1-6.1,2.9-9.2
			c0.6-2.2,1.2-4.5,1.8-6.7c0.1-0.5,0.3-1,0.4-1.5c0.1-0.1,0.1-0.1,0.2-0.2c1.8-1.8,3.6-3.6,5.3-5.3c0.2-0.2,0.3-0.4,0.5-0.5
			c-0.6,2-1.2,4-1.7,6c-1.6,6.6-1.6,13.4,0,20c0.8,3.3,2.1,6.1,4.1,8.9c4.8,6.7,11.5,11.6,19.4,14c4.7,1.4,9.5,2.1,14.4,2.2
			c3.2,0.4,6.5,0.1,9.6-0.7c5.6-0.8,11-3.2,16.1-6.3c4.7-2.9,9.4-5.9,14-8.9c1.1-0.7,2.1-1.4,3.2-2.1c3.2,5.3,7.4,10,13,13.4
			c9.9,6.1,21.4,7.4,32.4,4.2c8.3-2.4,15.7-6.9,22.4-12.3c3.1-2.5,6.1-5.1,9-7.9c4.5,5.8,10.3,10.4,17.2,13.2
			c5.7,2.3,11.7,3.6,17.8,3.8c5.1,0.2,10.3-0.3,15.3-1.3c3.2-0.6,6.5-1.4,9.7-2.2c0.7-0.2,1.2-0.3,1.9-0.5c1.4-0.5,2.8-0.9,4.2-1.3
			c3.9-1,7.6-2.5,11-4.5l21.2-10c3-1.3,5.9-2.9,8.7-4.5c3.3-1.9,6.6-3.8,9.8-5.7c3.3-2,6.7-4,10.1-6c3.5-2.1,7-4.3,10.3-6.7
			c0.4-0.3,0.7-0.5,1.1-0.8c-0.1,0,0,0,0.1,0c1.7-0.9,3.4-2,4.9-3.1c2.6-1.9,4.8-4.1,6.5-6.5c2.2-2,4.2-4,6-6.2
			c4.5-5.4,7.2-11.7,7.2-18.9c0-16.3-13.3-26.6-28.4-26.6c-3.6,0-7,0.7-10.2,2.1c-2.1,0.6-4.1,1.4-6.1,2.3c-1.2-7-4.6-13.4-9.3-18.8
			c-8.7-9.9-21.4-12.6-34-12.6c-6,0-11.8,1.6-16.7,5c-1.5,0.7-3,1.4-4.5,2c-1.4,0.6-2.8,1.2-4.2,1.9c-2.3-1.4-4.8-2.5-7.7-3.2
			c-0.7-0.2-1.3-0.3-2-0.4c-4.2-1.2-8.7-1.3-13.1-0.3c-5,0.9-10,3-14.4,6.3c-3.6,2.6-7,5.6-10.2,8.7c-2.8,2.7-5.5,5.3-8.2,8.1
			c-1.2,1.2-2.4,2.4-3.7,3.7c-1.9-2.8-4.3-5.2-7.3-7.2c-0.5-0.3-1-0.7-1.6-1c-2.5-2-5.2-3.6-8.2-4.7c-10.3-4.1-21.4-3.1-29.9,3.2
			c0.9-2.1,1.6-4.4,2.1-6.7c2.2-10.2-0.3-20.6-7.2-28.5c-2.8-3.1-6-5.5-9.6-6.9c-7.4-4.2-16.3-4.9-24.7-1.8
			c-4.8,1.8-9.1,4.5-12.9,7.8c-3,2.6-5.7,5.5-8,8.6c-3,4.1-5.2,8.7-6.2,13.5C1878,318.7,1878,318.7,1878,318.8L1878,318.8z
			 M1631.7,312.8c0.7-1.4,1.4-2.7,2-4.1c0.3-0.7,0.6-1.3,0.9-2c0.4-1.1,0.9-2.2,1.2-3.4c1.2-1.9,2.1-4,2.7-6.3
			c0.4-1.4,1.2-3,1.9-4.4c0.8-1.4,1.6-2.8,2.4-4.2c3.6-0.6,7.2-1.1,10.7-1.8c8-1.4,16.1-2.2,24.1-2.6c8.9-0.5,17.8,0,26.6,1.1
			c9.8,1.2,19.5,4,28.8,7.5c0.3,0.2,0.9,1.2,1.1,1.6c1,1.8,1.7,3.8,1.6,5.9c-0.1,1.7-0.5,3.5-1,5.1c-0.9,3-2,6-3.2,8.9
			c-1.3,3-2.6,6-4.2,8.9c-1,2-2.1,3.9-3.4,5.8c-2.1,2.5-4.1,5-6.1,7.6c-2.4,3.1-4.8,6.1-7.2,9.2c-2.6,3.2-5.2,6.3-7.8,9.5
			c-0.1,0.1-0.1,0.2-0.2,0.2c-6.9,1.3-13.9,2.7-20.8,4.2c-9.3,2-18.6,4.3-27.9,6.7c-9.1,2.4-18.2,4.9-27.2,7.6
			c-7.3,2.2-14.5,4.3-21.8,6.4c0.5-1.3,1.1-2.5,1.8-3.8c2.4-4.7,4.4-9.5,5.9-14.6c1.1-3.4,2.2-6.8,3.3-10.2c0.6-2,1.4-4,2.4-5.8
			c0.1-0.2,0.2-0.4,0.3-0.6l5.7-11.3c1.1-2.1,1.7-4.1,2.2-6.4c0.3-1.3,0.5-2.7,0.7-4.1c0.1-0.3,0.2-0.5,0.3-0.8
			c0.5-1.1,1-2.1,1.6-3.2C1630.4,317.3,1631.2,315.3,1631.7,312.8z"/>
		<path class="st6" d="M1180.3,224.1c0.2,1-0.1,1.7-0.8,2c-0.7,0.3-1.1,0.9-1.1,1.7c0,0.8,0.3,1.5,0.9,1.9c0.6,0.4,1,1.2,1.3,2.2
			c-0.4,0.4-0.9,0.5-1.4,0.3c-0.5-0.2-1-0.1-1.4,0.3c-0.2,0.4-0.2,0.7,0,0.8c0.2,0.1-0.1,0.2-0.9,0.2c-0.4,0.2-0.5,0.5-0.3,0.8
			c0.2,0.3,0.2,0.6,0,0.8c-1,0.4-2.1,0.6-3.3,0.6c-1.2,0-2.3,0.2-3.3,0.6c-0.4,0-0.9,0.1-1.4,0.3c-0.5,0.2-1,0.3-1.4,0.3
			c-1,0-2.2,0-3.5,0c-1.3,0-2.5,0.1-3.8,0.3c-3.4,0.4-6.7,1-9.9,1.9c-3.2,0.8-6.4,1.6-9.6,2.2c-1,0.4-2.2,0.7-3.5,0.9
			c-1.3,0.2-2.4,0.3-3.5,0.3c-3.1,0.8-6.3,1.6-9.4,2.4c-3.1,0.7-6.5,1.4-10.1,2c-8.6,2.7-17.5,4.9-26.7,6.6
			c-9.2,1.7-18.3,3.7-27.3,6c-7.1,1.7-14.2,3.3-21.2,4.9c-7,1.6-14.1,3.2-21.2,4.9c-13.8,3.6-27.2,7.8-40.1,12.6
			c-12.9,4.8-25.7,9.3-38.5,13.5c-1.5,0.6-2.9,1.4-4.4,2.2c-1.5,0.8-3,1.5-4.7,1.9c-0.4,0.2-0.9,0.3-1.4,0.2c-0.5-0.1-1-0.1-1.4,0.2
			c-1.7,0.6-3.5,1.5-5.3,2.5c-1.9,0.4-3.7,1-5.5,1.9c-1.8,0.8-3.5,1.7-5.2,2.5l-5.7,1.9c-1.7,0.8-3.3,0.7-4.9-0.5
			c-1.6-1.2-2.7-2.5-3.3-3.9c-1-2.3-1.6-5.1-1.6-8.3c0-3.2,0.4-5.7,1.3-7.4c4.8-2.5,9.8-4.7,15.1-6.6c5.2-1.9,10.4-3.7,15.4-5.3
			c10.5-3.8,20.8-7.6,31.1-11.5c10.3-3.9,20.7-7.5,31.4-10.8c4-1.5,8.1-2.8,12.3-4.1c4.2-1.3,8.4-2.4,12.6-3.5
			c2.3-0.8,4.6-1.5,6.9-2c2.3-0.5,4.8-1.1,7.5-1.7c1-0.2,2.1-0.5,3.1-0.9c1-0.4,2.4-0.7,4.1-0.9l6.6-1.6c2.9-1,5.8-1.8,8.5-2.4
			c2.7-0.5,5.8-1.2,9.1-2c0.6-0.2,1.4-0.5,2.2-0.8c0.8-0.3,1.8-0.5,2.8-0.5c1-0.2,1.9-0.3,2.7-0.3c0.7,0,1.4-0.3,2-0.9
			c0.4,0.4,1,0.4,1.9-0.2c0.8-0.5,1.8-0.9,2.8-1.1c0.6,0,1.3,0,2,0c0.7,0,1.3-0.1,1.7-0.3c0.8,0,1.5-0.3,1.9-0.9
			c0.6-0.2,1.3-0.3,2-0.3c0.7,0,1.3,0,1.7,0c1.9-0.4,3.9-0.9,6-1.4c2.1-0.5,4.2-0.9,6.3-1.1c0.8-0.2,1.7-0.3,2.7-0.3
			c0.9,0,1.8-0.2,2.7-0.6c6.1-1.3,12.3-2.3,18.7-3.1c6.4-0.8,12.9-1.7,19.6-2.5c1-0.2,2.1-0.4,3.3-0.6c1.2-0.2,2.5-0.4,3.9-0.6
			c2.7-0.4,5.6-0.7,8.5-0.8c2.9-0.1,5.9-0.1,8.8,0.2c1.3,0.4,2.6,0.6,3.9,0.6c1.4,0,2.7,0.1,3.9,0.3
			C1175.7,220.3,1178.2,221.7,1180.3,224.1L1180.3,224.1z M2066.2,410.1c-1.7,1-3.5,1.8-5.5,2.4c-2,0.5-3.9,1.1-5.8,1.7
			c-2.5,0.6-5.3,1.3-8.5,1.9c-3.1,0.6-6.3,0.9-9.4,0.8c-3.1-0.1-6.1-0.7-9-1.9c-2.8-1.2-5.2-3.1-7.1-5.8c-1.5-1.9-2.3-4.2-2.5-6.9
			c-0.2-2.7,0-5.5,0.6-8.3c0.6-2.8,1.5-5.7,2.7-8.5c1.2-2.8,2.4-5.4,3.6-7.7c1-0.8,1.9-1.9,2.5-3.1c0.6-1.3,1-2.3,1.3-3.1
			c4.4-5.2,9-10.3,13.7-15.1c4.7-4.8,9.6-8.6,14.6-11.3c2.3-1.5,4.7-2.7,7.2-3.8c2.5-1,4.8-2.1,6.9-3.1c0.8-0.4,1.5-0.8,2-1.3
			c0.5-0.4,1.3-0.6,2.4-0.6c7.5,0,12.5,1.3,14.8,3.9c2.3,2.6,3.5,5.2,3.5,7.7c-0.2,0.8-0.9,1.8-2.2,2.8c-1.3,1-2.2,2.1-2.8,3.1
			c-1,1-2,2-2.8,3c-0.8,0.9-1.5,1.8-1.9,2.7c-8.4,7.3-16.8,13.8-25.1,19.5c-2.1,1.7-4.9,2.8-8.3,3.5c-3.5,0.6-7,0.7-10.5,0.3
			c-1.3,1.3-2.5,2.9-3.8,4.9c-1.3,2-2.3,4.1-3,6.3c-0.7,2.2-1,4.4-0.9,6.6c0.1,2.2,1,4,2.7,5.5c4.2,0.4,7.9,0,11-1.3
			c3.1-1.3,6.2-2.3,9.1-3.1c2.3-0.6,4.7-1.4,7.2-2.2c2.5-0.8,4.7-1.7,6.6-2.5c4.4-2.1,8-3.8,10.8-5.2c2.8-1.4,5.5-2.7,8-3.9
			c2.5-1.3,5.1-2.6,7.9-4.1c2.7-1.5,6.2-3.4,10.4-5.7c3.4-1.7,6.8-3.4,10.2-5.2c3.5-1.8,6.8-3.5,9.9-5.2c1.3-1,2.4-1.8,3.5-2.4
			c1-0.5,2.4-1,4.1-1.4c0.2,0,0.5-0.1,0.8-0.3c0.3-0.2,0.6-0.3,0.8-0.3c1.9,0,2.8,0.3,2.8,0.9c0,0.6-0.5,1.5-1.4,2.7
			c-0.9,1.2-2.1,2.4-3.5,3.6c-1.4,1.3-2.5,2.5-3.3,3.8c0.2,0-0.1,0.3-0.8,0.8c-0.7,0.5-1.6,1-2.5,1.6c-0.9,0.5-1.8,1-2.5,1.6
			c-0.7,0.5-1.1,0.8-1.1,0.8c-2.3,1.7-5.1,3.5-8.5,5.5c-3.4,2-6.7,4-10.1,6c-3.4,2-6.5,3.8-9.4,5.5c-2.9,1.7-5.1,2.8-6.6,3.5
			L2066.2,410.1L2066.2,410.1z M2043.6,377.7c1.9,0,3.7-0.5,5.5-1.6c1.8-1,3.5-2.1,5.2-3.1c4.2-3.4,8.5-7.1,12.9-11.2
			s8.4-8.2,11.9-12.4c0.4,0,0.6-0.3,0.6-0.9c-7.5,2.7-14.2,6.7-20,11.9C2054,365.7,2048.7,371.4,2043.6,377.7L2043.6,377.7z
			 M2032.6,341c-0.4-0.6-1.8-0.1-4.1,1.6c-2.3,1.7-4.8,3.8-7.5,6.4c-2.7,2.6-5.3,5.2-7.9,7.7c-2.5,2.5-4.2,4.2-5,5
			c-1.9,1.7-3.6,3.5-5,5.3c-1.5,1.9-3.1,3.7-5,5.3c-1.9,2.7-5,6-9.4,9.9c-4.4,3.9-9,7.4-13.7,10.5c-4.7,3.1-8.9,5.5-12.6,7.1
			c-3.7,1.6-5.7,1.3-6.1-0.8c0.8-3.6,2.1-7.6,3.8-12.3c1.7-4.6,3-8.7,4.1-12.3c0-0.2,0.1-0.4,0.3-0.5c0.2-0.1,0.3-0.4,0.3-0.8
			c0.2-0.4,0.3-1,0.3-1.7c0-0.7,0.2-1.4,0.6-2c0-0.4,0.1-0.6,0.2-0.6c0.1,0,0.3-0.2,0.5-0.6c0.4-1,0.8-2.1,1.3-3.1
			c0.4-1,0.8-2.1,1.3-3.1c0.6,0,0.9-0.1,0.9-0.3c0-0.8,0.2-1.5,0.5-1.9c0.3-0.4,0.5-0.9,0.5-1.6c-0.2-1-0.5-1.7-0.8-1.9
			c-0.3-0.2-0.9-0.5-1.7-0.9c-0.6-0.4-1.2-0.8-1.6-1.3c-0.4-0.4-0.9-0.7-1.6-0.9c-2.9-1.3-5.1-0.9-6.4,0.9c-1.4,1.9-2.7,3.5-3.9,4.7
			c-0.4,1.7-0.9,3.2-1.4,4.6c-0.5,1.4-1.2,2.8-2,4.2c0,1.7-0.3,3.1-0.9,4.4c-0.6,1.3-1.3,2.5-2,3.8l-0.6,1l-1.5,0.9
			c-1,0.6-2.6,1.4-4.6,2.2c-2,0.8-3.7,1.5-5.2,1.9c-5.2,1.9-10.5,4.1-15.7,6.6c-5.2,2.5-10,4.8-14.3,6.8c-4.3,2-7.9,3.6-10.8,4.7
			c-2.9,1.2-4.7,1.4-5.3,0.8c-0.6-0.6-0.6-2,0-4.1c0.6-2.1,1.7-4.6,3.1-7.4c1.5-2.8,3-5.8,4.7-9c1.7-3.1,3.2-6.2,4.7-9.1
			c0.4-0.2,0.6-0.5,0.6-0.9c0-0.4,0.2-0.7,0.6-0.9c0.2-0.2,0.4-0.3,0.5-0.2c0.1,0.1,0.3,0.1,0.5-0.2c0.4-0.8,0.7-1.6,0.9-2.4
			c0.2-0.7,0.5-1.4,0.9-2c1-1.7,1.5-3.2,1.3-4.7c0.4-1,0.6-2,0.5-2.8c-0.1-0.8-0.3-2-0.5-3.5c-0.2-1-0.7-1.9-1.4-2.5
			c-0.7-0.6-1.4-1.4-2-2.2c-0.6,0.4-1.4,0.4-2.4-0.2c-0.9-0.5-1.8-0.6-2.7-0.2c-1.5,0.2-3,0.8-4.7,1.9c-2.9,4.2-5.7,8.7-8.2,13.7
			c-2.5,4.9-4.9,9.8-7.2,14.6c-0.6,1.7-1.4,3.5-2.2,5.3c-0.8,1.9-1.7,3.7-2.5,5.3c-0.4,1.7-1,3.2-1.7,4.7c-0.7,1.5-1.4,3-2,4.7
			c-1,3.1-1.9,6-2.5,8.5c-0.6,2.5-0.6,5,0,7.5c1.7,2.3,3.7,3.8,6.1,4.6c2.4,0.7,5.3,1.1,8.6,1.1c0.6,0,1,0.1,1.3,0.2
			c0.2,0.1,0.6-0.2,1.3-0.8c1.5,0.6,4.2-0.3,8.2-2.7c4-2.4,8.3-5.2,13-8.3c4.7-3.1,9.2-6.2,13.5-9.1c4.3-2.9,7.6-4.8,9.9-5.7
			c2.5-1.3,5.1-2.6,7.7-4.1c2.5-1.4,4.6-2.9,6.4-4.4c-0.5,2.4-1,4.6-1.5,6.8c-0.6,2.6-1,5.4-1.3,8.3c0,0.4,0.2,1,0.6,1.9
			c0.4,0.8,0.4,1.7,0,2.5c2.1,7.5,4.9,12.4,8.5,14.6c3.6,2.2,7.5,2.7,11.8,1.4c4.3-1.3,8.7-3.8,13.4-7.5c4.6-3.8,9-7.8,13-12.1
			c4.1-4.3,7.8-8.4,11-12.3c3.2-3.9,5.7-6.7,7.4-8.3c1-1,3-3.2,5.8-6.4c2.8-3.2,5.8-6.6,8.8-10.1c3-3.5,5.6-6.5,7.7-9.3
			c2.1-2.7,3-4.2,2.8-4.4c2.1-3.8,3.4-6.3,3.9-7.5c0.5-1.3,0.6-1.9,0.2-2c-0.4-0.1-1,0-1.7,0.3c-0.7,0.3-1.2,0.3-1.4-0.2
			c0.4-0.6,0.5-0.9,0.2-0.8C2033.4,340.6,2033,340.7,2032.6,341L2032.6,341z M1903.1,324c-0.2-0.6,0.3-1.8,1.6-3.5
			c1.3-1.7,2.7-3.2,4.4-4.7c1.7-1.5,3.4-2.5,5-3.1c1.7-0.6,3-0.3,4.1,0.9c0.4,0,0.8,0.1,1.1,0.3c0.3,0.2,0.6,0.3,0.8,0.3
			c1.5,1.7,1.9,3.7,1.4,6.1c-0.5,2.4-1.6,4-3.3,4.9c0.2,0.4,0.2,0.7,0,0.8c-0.2,0.1-0.3,0.4-0.3,0.8c-0.6-0.4-0.9-0.2-0.8,0.6
			c0.1,0.8-0.3,1-1.1,0.6c0.2,0.6-0.1,1.3-0.8,1.9c-0.7,0.6-1.1,1.3-1.1,1.9c-0.4-0.2-0.6-0.3-0.6-0.2c0,0.1-0.2,0.2-0.6,0.2
			c-0.4,1-1.3,1.8-2.7,2.4c-1.4,0.5-2.4,1.2-3,2c-0.4,0-0.8,0.1-1.1,0.3c-0.3,0.2-0.9,0.1-1.7-0.3c-1.3-0.4-2.1-1.1-2.5-2
			c-0.4-0.9-0.6-2-0.5-3.3c0.1-1.3,0.4-2.5,0.8-3.8C1902.6,325.9,1902.9,324.8,1903.1,324L1903.1,324z M1881.1,345.7
			c-0.4,0.6-0.6,1.2-0.5,1.6c0.1,0.4-0.3,0.8-1.1,1.3c0,0.4-0.3,0.6-0.9,0.6c-0.4,1-1.2,1.7-2.4,1.9c-1.2,0.2-2.1,0.8-3,1.9
			c-4.2,1.3-8.6,2.8-13.2,4.7c-4.6,1.9-9.1,3.9-13.4,6.1c-4.3,2.2-8.2,4.5-11.8,6.8c-3.6,2.3-6.3,4.6-8.2,6.9
			c-1.7,1.7-3.5,3.5-5.3,5.3c-1.9,1.9-3.6,4-5,6.3c-0.6,1.7-1.3,3.8-2,6.3c-0.7,2.5-1.4,5-2,7.4c-0.6,2.4-1.3,4.6-2,6.4
			c-0.7,1.9-1.4,3-2,3.5c-0.4,0.8-1.3,2-2.5,3.5c-1.3,1.5-2.3,2.1-3.1,1.9c-3.1,1.5-5.8,1.3-8-0.6c-2.2-1.9-3-4.5-2.4-7.9
			c0.4-2.1,1.4-5.2,2.8-9.4c1.5-4.2,2.4-7.4,2.8-9.7c0,0,0-0.1,0-0.3c0.2-0.6,0.3-1.3,0.3-1.9c1.7-2.9,3-6,4.1-9.1
			c0.3-0.8,0.6-1.7,0.9-2.5c-1,0.2-1.9,0.4-2.9,0.6c-4.3,0.8-8.4,1.6-12.3,2.2c-3.9,0.6-6.1,0.9-6.8,0.9c-2.5,0.2-6.1,0.7-10.7,1.6
			c-4.6,0.8-9.4,1.8-14.5,3c-5,1.2-9.9,2.2-14.6,3.1c-4.7,0.9-8.4,1.6-11.2,2l-0.6,0.6c0-0.2,0-0.3,0-0.3s-0.4,0.3-1.1,0.8
			c-0.7,0.5-1.8,1.4-3.3,2.7c-1.5,1.3-3.6,3-6.3,5.3c-2.3,2.3-4.7,4.6-7.1,6.8c-2.4,2.2-4.9,4.1-7.4,5.8c-1.3,1.5-2.5,2.7-3.8,3.8
			c-1.3,1-2.7,2.1-4.4,3.1c-1,1.5-2.3,2.6-3.6,3.3c-1.4,0.7-2.8,1.7-4.2,3c-1.3,1-2.6,2.1-4.1,3.1c-1.5,1-2.9,2.1-4.4,3.1
			c-4.2,2.9-8.4,6-12.6,9.3c-4.2,3.2-8.4,6.3-12.6,9.3c-5,2.7-9.7,5.8-14.1,9.1c-4.4,3.4-9.2,6.2-14.5,8.5c-1,0.6-2.1,1.4-3.1,2.2
			c-1,0.8-2.4,1.3-4.1,1.3c-2.9,1.9-6.1,3.8-9.4,5.8c-3.4,2-6.9,3.6-10.7,4.9c-2.7,1.5-5.4,2.7-8.2,3.6c-2.7,0.9-5.5,2-8.5,3.3
			c-0.4-0.2-0.4-0.2,0,0.2c0.4,0.3,0.4,0.5,0,0.5c-1.5,0.4-2.7,0.9-3.8,1.4c-1,0.5-2.1,1-3.1,1.4c-1.5,0.6-3,1.3-4.7,2
			c-1.7,0.7-3.2,1.6-4.7,2.7c-0.8-0.4-1.4-0.4-1.7,0c-0.3,0.4-0.9,0.6-1.7,0.6c-1.9,1.7-4.2,2.9-6.9,3.8c-2.7,0.8-5.2,1.9-7.5,3.1
			c0,0-0.4,0-1.3,0c-5.4,2.5-10.8,4.8-16.2,6.9c-5.3,2.1-11.1,3.9-17.1,5.3c-0.4,0.2-0.7,0.5-0.8,0.8c-0.1,0.3-0.5,0.6-1.1,0.8
			c-2.9,0.8-5.6,1.7-8,2.5c-2.4,0.8-5.4,1.4-9,1.6c-0.4,0-0.6,0.2-0.5,0.6c0.1,0.4-0.1,0.6-0.5,0.6c-1.7,0-3.1,0.3-4.2,0.8
			c-1.2,0.5-2.4,0.8-3.6,0.8c-8,1.5-16.6,2.5-25.8,3.1c-9.2,0.6-18.1-0.2-26.7-2.5l-2.8-1.3c-1.3-0.4-2.5-0.7-3.6-0.8
			c-1.2-0.1-2.5-0.5-3.9-1.1c-2.5-1.3-4.8-3-6.8-5.2c-2-2.2-2.5-5.5-1.4-9.9c0.8-1.3,1.6-2.6,2.4-3.9c0.7-1.4,1.3-2.6,1.7-3.6
			c1.5-3.4,3.5-6.4,6-9.1c2.5-2.7,4.9-5.1,7.2-7.2c0.8-1.5,1.9-2.7,3.3-3.6c1.4-0.9,2.6-2,3.6-3.3c8.2-6.5,16.2-12.1,24.2-16.8
			c8-4.7,16-9,24.2-12.7c8.2-3.8,16.6-7.4,25.1-11c8.6-3.6,17.7-7.5,27.3-11.9c1.3-4.2,2.8-9.1,4.7-14.6c1.9-5.5,3.9-11.2,6-16.8
			c2.1-5.7,4.1-11.2,6.1-16.5c2-5.3,3.6-10.1,4.9-14.3c0.4-2.1,1-3.7,1.9-4.7c0.2-1.7,0.4-3,0.6-4.1c0.2-1,0.6-2,1.3-2.8
			c4-11.1,7.9-21.9,11.6-32.5c3.8-10.6,8-20.9,12.6-31l3.8-9.7c0.4-1,0.9-1.8,1.6-2.4c0.6-0.5,0.9-1.5,0.9-3c-0.6-1-1.3-1.3-1.9-0.8
			c-0.6,0.5-1.4,1-2.2,1.4c-10.3,3.8-18.6,6.8-25,9.1c-6.4,2.3-12,4.4-16.8,6.3c-4.8,1.9-9.5,3.9-14.1,6.1c-4.6,2.2-10.2,5.2-16.7,9
			c-1.7,1-3.4,2.3-5,3.6c-1.7,1.4-3.6,2.4-5.7,3c-1.9,1-3.9,1.9-6,2.7c-2.1,0.7-3.8,1.7-5,3c-1.9,1.3-3.7,2.6-5.3,3.9
			c-1.7,1.4-4,1.8-6.9,1.4c-0.4,0-0.9-0.2-1.4-0.5c-0.5-0.3-1.1-0.7-1.7-1.1c-1.5-0.4-2.7-0.7-3.8-0.9c-1-0.2-2.1-0.8-3.1-1.9
			c-0.6-0.6-1.5-1.4-2.5-2.4c-1-0.9-1.6-1.7-1.6-2.4c0-1,0.9-2.3,2.8-3.6c1.9-1.4,3-2.3,3.5-2.7c1-0.4,2.2-0.9,3.5-1.4
			c1.3-0.5,2.5-1.2,3.8-2c2.9-1.7,6.1-3.4,9.4-5c3.4-1.7,6.6-3.5,9.7-5.3c4.8-2.3,9.5-4.5,14.1-6.4c4.6-2,9.4-4,14.5-6.1
			c11.1-4.6,22.6-9.2,34.6-13.8c11.9-4.6,24.2-8.4,36.8-11.3c0.6-1,1.2-2.1,1.6-3.3c0.4-1.2,1-2.1,1.9-3v-2.2c0.6-1.3,1.3-2.5,2-3.6
			c0.7-1.2,1.9-1.8,3.6-2c0.2,0,0.3-0.1,0.3-0.3v-0.6c1-0.4,1.9-0.8,2.7-1.3c0.7-0.4,1.4-0.8,2-1.3c4.2,0.6,7.4,1.9,9.6,3.9
			c2.2,2,4.1,4.3,5.8,7.1c4.6-0.2,9.3-0.6,14-1.3c4.7-0.6,9.6-1,14.6-1.3c7.1-0.4,15-0.7,23.7-0.8c8.7-0.1,17.3,0.3,25.9,1.3
			c8.6,0.9,16.8,2.5,24.7,4.7c7.9,2.2,14.5,5.5,20,9.9c2.9,2.3,5.7,5,8.2,8.2c2.5,3.1,4.7,6.2,6.6,9.1c1.9,3.1,3.6,6.5,5.2,10.2
			c1.6,3.7,2.7,7.6,3.3,11.8c0.6,5.4-0.5,11.9-3.3,19.5c-2.8,7.5-6.3,15.1-10.5,22.6c-4.2,7.5-8.6,14.6-13.2,21.1
			c-4.6,6.5-8.4,11.3-11.3,14.5c2.9-0.2,6.3-0.7,10.2-1.6c3.9-0.8,7.8-1.7,11.6-2.7c3.9-0.9,7.8-1.8,11.6-2.5
			c3.9-0.7,7.3-1.3,10.2-1.7c2.1-0.4,4.2-0.7,6.3-0.8c2.1-0.1,4.3-0.2,6.6-0.2c3.4-0.6,6.2-1.1,8.5-1.4l2-0.3
			c0.8-2.9,1.8-5.7,2.9-8.5c1.6-4.1,3-8,4.2-11.8c0.2-0.8,0.5-1.5,0.9-1.9c0.4-0.4,0.8-0.9,1.3-1.6c1-0.4,1.9-0.8,2.7-1.3
			c0.7-0.4,1.5-0.6,2.4-0.6c0.4-0.4,0.9-0.6,1.6-0.6c0.4,0,0.9,0.1,1.4,0.2c0.5,0.1,1,0.2,1.4,0.2c1.9,0.2,3.2,0.9,4.1,2.2
			c2.5,3.4,2.3,6.5-0.6,9.4c-0.2,1.7-0.6,3.4-1.1,5c-0.5,1.7-0.9,3.1-1.1,4.4c7.3-5.4,14.6-9.2,21.7-11.3c7.1-2.1,13.7-3.3,19.8-3.8
			c1.7-0.2,3.6-0.4,5.8-0.6C1877.5,344.2,1879.5,344.6,1881.1,345.7L1881.1,345.7z M1606.8,406.3c9.4-2.7,18.5-5.4,27.3-8
			c8.8-2.6,17.6-5.1,26.4-7.4c8.8-2.3,17.8-4.5,26.9-6.4c9.1-2,18.6-3.8,28.4-5.5c1.9-1.9,4.1-4.4,6.8-7.5c2.6-3.1,5.3-6.4,8-9.7
			c2.7-3.3,5.3-6.6,7.7-9.7c2.4-3.1,4.5-5.7,6.1-7.5c1.9-2.7,3.8-5.9,5.7-9.4c1.9-3.6,3.6-7.2,5.2-11c1.6-3.8,2.9-7.6,4.1-11.5
			c1.2-3.9,1.8-7.5,2-10.8c0.4-6.7-1.2-13.3-4.7-19.8c-3.6-6.5-8.4-10.9-14.5-13.2c-12.2-4.6-23.7-7.6-34.7-9
			c-11-1.4-21.4-1.8-31.1-1.3c-9.7,0.5-18.8,1.5-27.2,3c-8.4,1.5-16.1,2.6-23.3,3.5c-1.9,3.8-3.3,6.7-4.2,8.6
			c-0.9,2-2.1,4.2-3.6,6.8c-1.9,3.6-3.2,6.8-4.1,9.7c-1,1-1.7,2.1-1.9,3.1c0,0.6-0.4,2-1.3,4.1c-0.8,1.7-1.6,3.2-2.4,4.7
			c-0.7,1.5-1.3,3.1-1.7,5c-1,1.9-1.9,3.7-2.7,5.3c-0.7,1.7-1.4,3.4-2,5c0,0.6-0.1,1.4-0.2,2.2c-0.1,0.8-0.3,1.8-0.5,2.8l-5.7,11.3
			c-1.7,3.1-3.1,6.5-4.2,10.2c-1.2,3.7-2.3,7.1-3.3,10.2c-1,3.6-2.5,7.1-4.2,10.5c-1.8,3.5-3.3,7-4.6,10.5c-0.6,1.9-1.8,4.9-3.5,9
			c-1.7,4.1-3.4,8.5-5,13.2c-1.7,4.7-3.3,9.3-4.9,13.7c-1.6,4.4-2.6,7.8-3,10.1c3.1-0.8,6.5-1.9,10.2-3.3c3.7-1.4,7.5-2.7,11.5-4.1
			c4-1.4,7.9-2.7,11.6-4.1C1600.2,408.3,1603.6,407.2,1606.8,406.3L1606.8,406.3z M1680.6,396c-17,4.6-30.7,8.4-41.3,11.5
			c-10.6,3-18.9,5.5-25,7.4c-6.1,1.9-10.4,3.2-12.9,4.1c-2.5,0.8-4.2,1.4-5,1.6c-0.6,1-1,1.5-1.3,1.3c-6.9,1.9-13.7,4.6-20.3,8.2
			c-6.6,3.6-12.1,6.1-16.5,7.5c-1.7,6.3-3.5,12-5.5,17.1c-2,5.1-4.1,10.1-6.4,14.9c-0.2,0-0.4,0.1-0.5,0.3c-0.1,0.2-0.4,0.3-0.8,0.3
			c-0.6,2.1-1.5,3.5-2.5,4.2c-1,0.7-2.1,1.1-3.3,1.1c-1.2,0-2.5-0.2-3.9-0.5c-1.5-0.3-2.9-0.5-4.4-0.5c-0.6-1-1-2.3-1.1-3.8
			c-0.1-1.5-0.1-2.9,0.2-4.4c0.2-1.7,0.6-4.1,1.1-7.2c0.5-3.1,1.1-6.2,1.7-9.1c0.8-3.6,1.6-7.1,2.2-10.7c-2.1,0.4-4.2,1.3-6.4,2.7
			c-2.2,1.4-4.5,2.6-6.8,3.6c-1.1,0.4-2.2,0.7-3.5,0.9c-1.3,0.2-2.4,0.8-3.5,1.9c-8,2.9-15.1,5.7-21.4,8.2
			c-6.3,2.5-13,6.1-20.1,10.7c-4.8,3.4-9.4,6.3-13.7,8.8c-4.3,2.5-8.9,5.7-13.7,9.4c0,0.4,0.1,0.7,0.2,0.8c0.1,0.1,0.1,0.4-0.2,0.8
			c-0.8,1.3-1.7,2.2-2.7,2.8c-0.9,0.6-1.9,1.2-2.8,1.7c-0.9,0.5-1.8,1.2-2.7,1.9c-0.8,0.7-1.7,1.7-2.5,3c0.2,0.4,0.6,0.5,1.1,0.3
			c0.5-0.2,0.9-0.2,1.1,0c-1,1.9-2.3,3.8-3.6,5.7c-1.4,1.9-2.1,4.3-2.4,7.2c1.7,1.3,3.6,2,5.7,2.4c2.1,0.3,4.2,0.5,6.4,0.5
			c2.2,0,4.4-0.1,6.6-0.3c2.2-0.2,4.2-0.2,6.1,0c1.7-0.4,3.1-0.8,4.2-1.1c1.2-0.3,2.3-0.4,3.3-0.2c0.8-0.2,1.6-0.4,2.4-0.6
			c0.7-0.2,1.3-0.3,1.7-0.3c9.4-1.7,18.2-3.8,26.4-6.4c8.2-2.6,16.3-5.2,24.5-7.7c0.6-0.6,1.4-1.2,2.2-1.7c0.8-0.5,1.8-0.8,2.8-0.8
			c0.8-0.4,1.7-0.9,2.7-1.4c0.9-0.5,2-0.9,3.3-1.1c9.4-4.2,18.6-8.5,27.7-12.9c9-4.4,17.9-9.1,26.7-14.1c0.4,0.4,0.7,0.5,0.8,0.2
			c0.1-0.3,0.4-0.5,0.8-0.5c0.4-0.4,1-0.8,1.7-1.3c0.7-0.4,1.4-0.8,2-1.3c1.5,0,2.8-0.6,3.9-1.7c1.2-1.2,2.3-1.8,3.3-2
			c2.5-0.6,5.9-2,10.1-4.1c4.2-2.1,8.7-4.6,13.7-7.4c4.9-2.8,10-5.9,15.1-9.1c5.1-3.2,9.9-6.3,14.3-9.3c4.4-2.9,8.2-5.6,11.3-8
			c3.1-2.4,5.2-4,6.3-4.9c1.5-0.6,3.4-1.8,5.7-3.5c2.3-1.7,4.8-3.6,7.4-5.8c2.6-2.2,5.4-4.5,8.3-6.9c2.9-2.4,5.8-4.6,8.5-6.4
			c-1.7,0.2-4.3,0.7-7.9,1.6c-3.6,0.8-5.8,1.5-6.6,1.9c-0.4,0-0.7,0.2-0.9,0.6C1682,396.4,1681.5,396.4,1680.6,396L1680.6,396z
			 M1417.9,401c0.4-0.2,0.7-0.5,0.9-0.8c0.2-0.3,0.8-0.6,1.9-0.8c-0.4-0.2-0.3-0.4,0.3-0.6c0.6-0.2,0.9-0.1,0.9,0.3
			c1.7-1.3,3.1-2.5,4.4-3.6c1.3-1.2,2.6-2.3,4.1-3.3c1-0.4,1.9-1,2.5-1.9c0.6-0.8,1.8-1.3,3.5-1.3c0-0.4,0.1-0.6,0.2-0.6
			s0.2-0.1,0.2-0.3c1.3-0.4,2.4-0.9,3.3-1.6s1.8-1.2,2.7-1.6v-0.3c-0.4,0-0.6-0.1-0.6-0.3c0.2,0,0.5-0.2,0.8-0.5
			c0.3-0.3,0.7-0.5,1.1-0.5c1-1,1.4-1.9,1.1-2.5c-0.3-0.6-0.8-1.4-1.4-2.2c-4.4,1.5-8.8,3.1-13.2,5c-4.4,1.9-8.5,3.7-12.4,5.5
			c-3.9,1.8-7.3,3.4-10.4,4.9c-3,1.5-5.3,2.5-6.8,3.1c-2.7,1.3-6,2.6-9.9,3.9c-3.9,1.4-7.9,1.5-12.1,0.5c-1.7-2.9-2.5-5.7-2.4-8.2
			c0.1-2.5,0.2-5.3,0.2-8.5c0.2,0,0.3-0.1,0.3-0.2c0-0.1-0.1-0.2-0.3-0.2c0.2-3.6,0.6-6.7,1.3-9.3c0.6-2.6,1.5-5.1,2.5-7.4
			c1-2.3,2.1-4.6,3.3-6.9c1.2-2.3,2.3-4.9,3.3-7.9c-0.2-0.2-0.3-0.4-0.3-0.6v-0.3c0.2-0.6,0.3-1.3,0.3-1.9c0-0.8,0.2-1.6,0.5-2.2
			c0.3-0.6,0.6-1.2,0.8-1.6c0.4-1.3,0.8-2.3,1.1-3c0.3-0.7,0.6-1.4,0.8-2c0.6-2.1,1.2-3.5,1.6-4.1c0.4-1.7,1-3.7,1.7-6
			c0.7-2.3,1.6-4.3,2.7-6c1-2.9,2.4-5.7,4.1-8.3c1.7-2.6,3.6-5.4,5.7-8.3c-0.4-0.2-0.5-0.4-0.3-0.6c0.2-0.2,0.3-0.5,0.3-0.9
			c0.8-0.8,1.4-1.8,1.7-2.8c0.3-1,1-1.8,2-2.2c0.2-1,0.6-1.9,1.1-2.7c0.5-0.7,1-1.6,1.4-2.7c0.4-0.4,0.6-1,0.6-1.7
			c0-0.7,0.5-1.3,1.6-1.7c0.2-1,0.5-2,0.9-2.8c0.4-0.8,0.7-1.5,0.9-1.9c1-1,1.4-2.3,0.9-3.8c0.6-0.4,0.9-0.9,0.9-1.6
			c0-0.6,0.4-1.2,1.3-1.6c-0.4-1-0.1-1.9,0.9-2.7c1-0.7,1.3-1.8,0.6-3.3c0.6-1,1.1-2.3,1.4-3.6c0.3-1.4,0.2-2.5-0.5-3.3
			c0.6-0.8,1.1-2.1,1.4-3.8c0.3-1.7,0.4-3.4,0.3-5.2c-0.1-1.8-0.4-3.4-0.9-4.9c-0.5-1.5-1.4-2.4-2.7-2.8c-0.4,0.4-0.9,0.5-1.4,0.3
			c-0.5-0.2-1-0.3-1.4-0.3c-1.5,0-2.7,0.4-3.6,1.3c-0.9,0.8-2,1.5-3.3,1.9c-1.7,1.7-3,3.7-4.1,6.1c-1,2.4-2.6,4.8-4.7,7.1
			c-2.3,4.2-4.7,8.2-7.1,12.1c-2.4,3.9-4.8,8.3-7.1,13.4c-2.3,4-4.3,8.2-6,12.6c-1.7,4.4-3.6,8.7-5.7,12.9c-0.6,2.3-1.5,4.7-2.5,7.1
			c-1,2.4-1.8,4.9-2.2,7.4c-0.4,0.4-0.7,0.9-0.8,1.6c-0.1,0.6-0.4,1.4-0.8,2.2c0,0.2-0.2,0.4-0.6,0.5c-0.4,0.1-0.7,0.4-0.9,0.8
			c-1.7,2.1-3.2,4.2-4.7,6.3c-1.5,2.1-3,4.1-4.7,6c-1.3,1.3-2.5,2.7-3.8,4.4c-1.3,1.7-2.6,3.1-4.1,4.4c-0.6,0.8-0.7,1.1-0.2,0.8
			c0.5-0.3,1.2-0.8,1.9-1.4c0.7-0.6,1.4-1.2,1.9-1.6c0.5-0.4,0.5-0.3-0.2,0.3c-5.7,6.1-11.3,11.9-16.8,17.6
			c-5.6,5.7-11.4,11.2-17.4,16.7c-2.3,1.9-4.7,3.8-7.1,5.7c-2.4,1.9-4.8,3.7-7.1,5.3c-1,0.6-2,1.3-3,1.9c-0.9,0.6-1.9,1.2-3,1.6
			c-0.8,0.4-1.8,0.5-3,0.3c-1.2-0.2-1.9-0.1-2.4,0.3c-0.4-0.4-0.8-0.7-1.1-0.9c-0.3-0.2-0.6-0.5-0.8-0.9c0.4-2.9,1.1-5.4,2-7.5
			c0.9-2.1,2.3-4,3.9-5.7c-0.2-0.4-0.2-0.7,0.2-0.8c0.3-0.1,0.5-0.4,0.5-0.8c1.9-1.7,3.2-3.9,4.1-6.6c1-0.4,1.6-0.9,1.6-1.6
			c2.9-2.9,5.7-5.9,8.2-8.8c2.5-2.9,5.6-5.3,9.1-7.2c3.6-1.9,7.3-3.7,11.3-5.3c4-1.7,8.1-3.6,12.3-5.7c0.8-1.3,0.9-2.5,0.3-3.8
			c-0.6-1.3-1.8-2.2-3.5-2.8c-1.7-0.2-3-0.3-3.9-0.2c-0.9,0.1-2.1,0.1-3.6-0.2c-3.6,0.8-6.6,1.9-9.1,3.3c-2.5,1.4-5.2,2.7-8.2,3.9
			c-4,3.6-8.2,6.7-12.7,9.4c-4.5,2.7-8.7,5.6-12.7,8.5c-1.9,2.3-4,4.7-6.3,7.1c-2.3,2.4-4,5.1-5,8c-1.3,2.5-2.4,5.2-3.5,8.2
			c-1,2.9-1.3,6-0.6,9.1c0.2,1,0.4,1.9,0.5,2.7c0.1,0.7,0.5,1.5,1.1,2.4c0.4,1.7,1.6,3.2,3.5,4.6c1.9,1.4,3.9,2.1,6,2.4
			c0.4,0,0.6,0.1,0.6,0.3v0.3c2.3,0.6,4.6,0.8,6.9,0.5c2.3-0.3,4.7-0.7,7.2-1.1c0.8-0.4,1.2-0.6,0.9-0.6c1.7,0,2.9-0.3,3.8-0.8
			c0.8-0.5,1.8-0.9,2.8-1.1c6.1-4.6,11.8-9.3,17.1-14.1c5.3-4.8,10.7-10,16.2-15.4c-0.2,0.2-0.3,0.3-0.3,0.2c0-0.1,0.2-0.4,0.6-0.8
			h0.3l0.9-0.9l0.3-0.3c0,0,0.2-0.1,0.6-0.3c0.2-0.2,0.4-0.4,0.5-0.6c0.1-0.2,0.4-0.4,0.8-0.6c0.4-0.4,0.5-0.5,0.3-0.2
			c-0.2,0.3-0.6,0.7-1.3,1.1c0.2,0,0.5-0.2,0.9-0.6c0.2-0.2,0.4-0.4,0.5-0.5c0.1-0.1,0.4-0.4,0.8-0.8l0.9-1.9l1.3-0.9
			c0.6-0.6,0.8-1.2,0.6-1.6c2.1-0.8,3.6-1.9,4.4-3.3c0.8-1.4,1.9-2.6,3.1-3.6c-0.2,3.4-0.3,6-0.2,8c0.1,2,0.4,4.8,0.8,8.3
			c0,0.8,0.1,1.5,0.3,2c0.2,0.5,0.2,1,0,1.4c0,0.8-0.1,1.5-0.2,2c-0.1,0.5-0.1,1.1,0.2,1.7c0.4,1.9,0.9,3.8,1.6,5.7
			c0.2,0.2,0.3,0.3,0.3,0.3c0.2,1.5,0.7,2.7,1.6,3.8c0.8,1,1.2,2.1,0.9,3.1c1.9,2.1,3.9,3.9,6.1,5.3c2.2,1.5,5.1,2.3,8.6,2.5
			c2.7,1,5.9,1.3,9.4,0.6c3.6-0.6,7.1-1.6,10.5-3c3.5-1.4,6.6-2.8,9.4-4.4c2.8-1.6,5-2.8,6.4-3.6c0.8-1.5,1.2-2.1,0.9-2
			C1415.5,402.5,1416.2,402,1417.9,401L1417.9,401z M1344.4,385.3c0,0.2-0.1,0.3-0.3,0.3l-0.6,0.6l0.3-0.3
			C1343.7,385.9,1344,385.7,1344.4,385.3L1344.4,385.3z M1443.7,384.3c-0.4,0-0.7,0.1-0.9,0.3C1443,384.4,1443.3,384.3,1443.7,384.3
			L1443.7,384.3z M1344.4,385.3c0.2,0,0.3-0.1,0.3-0.2c0-0.1,0.1-0.2,0.3-0.2c-0.2,0-0.3,0.1-0.3,0.2
			C1344.7,385.2,1344.6,385.3,1344.4,385.3L1344.4,385.3z M1345,385v-0.3c0.2,0,0.4-0.1,0.6-0.3C1345.2,384.7,1345,385,1345,385
			L1345,385z M1255.4,369.6c0.2,1.5,0.1,3.1-0.3,4.9c-0.4,1.8-1,3.2-1.9,4.2c-0.4,1-0.9,2.4-1.6,4.1c-0.6,1.7-1.4,3.1-2.2,4.4
			c-1.7,1.5-3.2,3.6-4.6,6.4c-1.4,2.8-2.9,4.8-4.6,5.8c0,0-1,1.1-3.1,3.3c-2.1,2.2-4.6,4.5-7.5,6.9c-2.9,2.4-6,4.6-9.3,6.4
			c-3.2,1.9-6,2.6-8.3,2.2c-3.4,1.3-6.6,1.7-9.7,1.4c-3.1-0.3-6-1.2-8.5-2.5c-2.5-1.4-4.6-3.2-6.3-5.7c-1.7-2.4-2.7-5.2-3.1-8.3
			c-0.2-0.4-0.3-1.2-0.3-2.4c0-1.2,0.3-1.9,0.9-2.4c-0.6-1.5-0.6-3,0.2-4.7c0.7-1.7,1.1-3.1,1.1-4.4l5.7-16c0.6-0.2,1-0.6,1.1-1.1
			c0.1-0.5,0.4-0.8,0.8-0.8c1.3-2.9,3-5.9,5.2-8.8c1-1.3,2-2.6,3-3.8c-0.4,0.1-0.8,0.1-1.2,0.2c-1.3,0.1-3.7,0.2-7.2,0.2
			c-2.9,0-6,0.2-9.3,0.6c-3.2,0.4-6.5,1-9.9,1.9c-3.4,0.8-6.5,1.6-9.6,2.4c-3,0.7-5.6,1.4-7.7,2c-0.2,0.8-0.3,1.5-0.3,2
			c0,0.5,0,1,0,1.4c0.2,1.5,0.1,3.1-0.3,4.9c-0.4,1.8-1,3.2-1.9,4.2c-0.4,1-0.9,2.4-1.6,4.1c-0.6,1.7-1.4,3.1-2.2,4.4
			c-1.7,1.5-3.2,3.6-4.6,6.4c-1.4,2.8-2.9,4.8-4.6,5.8c0,0-1,1.1-3.1,3.3c-2.1,2.2-4.6,4.5-7.5,6.9c-2.9,2.4-6,4.6-9.3,6.4
			c-3.2,1.9-6,2.6-8.3,2.2c-3.4,1.3-6.6,1.7-9.7,1.4c-3.1-0.3-6-1.2-8.5-2.5c-2.5-1.4-4.6-3.2-6.3-5.7c-1.7-2.4-2.7-5.2-3.1-8.3
			c-0.2-0.4-0.3-1.2-0.3-2.4c0-1.2,0.3-1.9,0.9-2.4c-0.6-1.5-0.6-3,0.2-4.7c0.7-1.7,1.1-3.1,1.1-4.4l5.7-16c0.6-0.2,1-0.6,1.1-1.1
			c0.1-0.5,0.4-0.8,0.8-0.8c1.3-2.9,3-5.9,5.2-8.8c2.2-2.9,4.5-5.7,6.8-8.2c1.3-1.7,2.7-3.5,4.2-5.3c1.6-1.9,3.2-3.6,5-5
			c1.8-1.5,3.6-2.4,5.5-2.8c1.9-0.4,3.7,0.1,5.3,1.6c2.1,0.4,3.9,1,5.3,1.9c0.2,0.4,0.5,0.4,0.8,0c0.3-0.4,0.7-0.5,1.1-0.3
			c0.4-0.2,1.2-0.2,2.4,0c1.2,0.2,2.4,0.5,3.6,0.9c1.3,0.4,2.4,0.8,3.5,1.3c1,0.4,1.8,0.8,2.2,1.3l3.1,4.4c2.5-0.6,6.4-1.4,11.8-2.2
			c5.3-0.8,10.9-1.5,16.8-2c5.9-0.5,11.3-0.7,16.3-0.6c5,0.1,8.7,0.9,11,2.4c0.2,0.2,0.5,0.3,0.8,0.3c0.3,0,0.6,0.1,0.8,0.3
			c0.2,0.2,0.4,0.3,0.6,0.3c0.6-0.1,1.1-0.1,1.4-0.1l1.2-1.5c1.6-1.9,3.2-3.6,5-5c1.8-1.5,3.6-2.4,5.5-2.8c1.9-0.4,3.7,0.1,5.3,1.6
			c2.1,0.4,3.9,1,5.3,1.9c0.2,0.4,0.5,0.4,0.8,0c0.3-0.4,0.7-0.5,1.1-0.3c0.4-0.2,1.2-0.2,2.4,0c1.2,0.2,2.4,0.5,3.6,0.9
			c1.3,0.4,2.4,0.8,3.5,1.3c1,0.4,1.8,0.8,2.2,1.3l3.1,4.4c2.5-0.6,6.4-1.4,11.8-2.2c5.3-0.8,10.9-1.5,16.8-2
			c5.9-0.5,11.3-0.7,16.3-0.6c5,0.1,8.7,0.9,11,2.4c0.2,0.2,0.5,0.3,0.8,0.3c0.3,0,0.6,0.1,0.8,0.3c0.2,0.2,0.4,0.3,0.6,0.3
			c1.3-0.2,1.9-0.1,2,0.3c0.1,0.4,0.6,0.6,1.4,0.6c1,0.8,1.3,1.7,0.6,2.7c-0.6,0.9-1.4,1.6-2.2,2c-2.3,0.2-3.7,0.5-4.2,0.9
			c-0.5,0.4-1,0.8-1.6,1.1c-0.5,0.3-1.4,0.5-2.7,0.6c-1.3,0.1-3.7,0.2-7.2,0.2c-2.9,0-6,0.2-9.3,0.6c-3.2,0.4-6.5,1-9.9,1.9
			c-3.4,0.8-6.5,1.6-9.6,2.4c-3,0.7-5.6,1.4-7.7,2c-0.2,0.8-0.3,1.5-0.3,2C1255.4,368.7,1255.4,369.1,1255.4,369.6L1255.4,369.6z
			 M1232.8,354.5c-1-0.4-2.1-0.6-3.1-0.6c-1,0-2-0.4-2.8-1.3l-0.9,0.9c-1.3,1-2.3,2.3-3,3.8c-0.7,1.5-1.6,3-2.7,4.7
			c-1,1.3-2.4,3.1-4.1,5.7c-1.7,2.5-3.4,5.2-5,8c-1.7,2.8-3.2,5.6-4.6,8.2c-1.4,2.6-2.1,4.7-2.4,6.1c-0.6,2.7-1.5,5.7-2.5,8.8
			c-1,3.1-0.8,6.2,0.6,9.1c4.6-1.7,8.6-3.8,12.1-6.3c3.5-2.5,6.7-5.3,9.6-8.5l1.9-2.2c0.8-1.5,2.4-4.2,4.7-8.2
			c2.3-4,4.2-8.1,5.8-12.3c1.6-4.2,2.3-7.9,2.2-11.2C1238.5,356.1,1236.6,354.5,1232.8,354.5L1232.8,354.5z M1134.1,354.5
			c-1-0.4-2.1-0.6-3.1-0.6c-1,0-2-0.4-2.8-1.3l-0.9,0.9c-1.3,1-2.3,2.3-3,3.8c-0.7,1.5-1.6,3-2.7,4.7c-1,1.3-2.4,3.1-4.1,5.7
			c-1.7,2.5-3.4,5.2-5,8c-1.7,2.8-3.2,5.6-4.6,8.2c-1.4,2.6-2.1,4.7-2.4,6.1c-0.6,2.7-1.5,5.7-2.5,8.8c-1,3.1-0.8,6.2,0.6,9.1
			c4.6-1.7,8.6-3.8,12.1-6.3c3.5-2.5,6.7-5.3,9.6-8.5l1.9-2.2c0.8-1.5,2.4-4.2,4.7-8.2c2.3-4,4.2-8.1,5.8-12.3
			c1.6-4.2,2.3-7.9,2.2-11.2C1139.8,356.1,1137.9,354.5,1134.1,354.5L1134.1,354.5z M919.8,403.5l8.8-18.9c1-1.3,1.8-2.5,2.4-3.6
			c0.5-1.2,1.1-2.6,1.7-4.2c2.1-2.7,3.6-5.8,4.4-9.1c0.4-0.2,0.7-0.4,0.9-0.6c0.2-0.2,0.5-0.4,0.9-0.6c-0.2-0.4-0.2-0.7,0-0.9
			c0.2-0.2,0.2-0.4,0-0.6c1-1.7,2-3.2,2.8-4.6c0.8-1.4,1.7-3,2.5-4.9c4.2-5.4,7.5-11.6,9.9-18.5c2.4-6.9,5.2-13.6,8.3-20.1
			c1.5-2.3,2.6-3.9,3.3-4.7c0.7-0.8,0.9-2.7,0.5-5.7c-1.5-2.1-3.2-4.1-5.3-6.1c-2.1-2-4.7-3.1-7.9-3.3c-0.8,0-1.5,0.1-2,0.2
			c-0.5,0.1-1.1-0.1-1.7-0.5c-1.5,0.4-2.7,1-3.6,1.7c-0.9,0.7-1.9,1.5-3,2.4c0,0.4-0.1,0.8-0.2,1.1c-0.1,0.3-0.1,0.7,0.2,1.1
			c-1.3,2.9-2.6,5.8-3.9,8.6c-1.4,2.8-2.8,5.6-4.2,8.3c0,0.2,0.1,0.4,0.2,0.5c0.1,0.1,0.2,0.4,0.2,0.8
			c-7.3,14.2-14.2,28.5-20.7,42.7c-6.5,14.2-13.4,28.4-20.7,42.4c-0.2,2.3-0.9,4.6-2,6.8c-1.2,2.2-2.3,4.5-3.3,6.8
			c-2.9,6.1-5.8,12.2-8.5,18.2c-2.7,6.1-5.2,12.1-7.5,18.2c-0.6,0.8-1.2,1.9-1.6,3.1c-0.4,1.3-0.9,2.5-1.6,3.8l-2.2,5.7
			c-1.5,3.6-2.7,6.9-3.6,10.1c-0.9,3.1-0.8,6.3,0.5,9.4c0.8-0.4,1.7-0.8,2.5-1.3c0.8-0.4,1.6-0.4,2.2,0v-1.3c1-0.2,1.7-0.1,1.9,0.5
			c0.2,0.5,0.6,0.8,1.3,0.8c0.8,0.6,2.7-0.5,5.7-3.3c2.9-2.8,4.8-6.8,5.7-11.8c0.8-0.4,1.5-0.9,2-1.6c0.5-0.6,0.7-1.2,0.5-1.6
			c0.6-0.8,1.2-1.7,1.6-2.5c0.4-0.8,0.8-1.7,1.3-2.5c0.2-0.2,0.5-0.4,0.8-0.5c0.3-0.1,0.6-0.4,0.8-0.8c0.6-0.6,1-1.3,1.3-2
			c0.2-0.7,0.5-1.5,0.9-2.4c1.7-2.3,3.3-4.8,4.9-7.5c1.6-2.7,2.8-5.2,3.6-7.5c1.7-2.3,3.1-4.9,4.4-7.7c1.3-2.8,2.5-5.7,3.8-8.6
			c1.9-3.6,3.8-7.3,5.7-11.2C916,411.7,917.9,407.7,919.8,403.5L919.8,403.5z M925.8,393.8l-1.6,2.8c-1,0-1.6,0.6-1.6,1.9
			c0,1.3,0.3,2.4,0.9,3.5c0.2,1.3,1,2,2.4,2.2c1.4,0.2,3,0.2,4.9-0.2c1.9-0.3,3.8-0.8,5.7-1.4c1.9-0.6,3.5-1.2,4.7-1.6l12.3-3.1
			l0.3,0.3l-0.3-0.3l1.6-0.3c0,0.4-0.1,0.6-0.3,0.6c0.8-0.2,1.5-0.7,1.9-1.6c2.3-0.2,4.2-0.6,5.8-1.3c1.6-0.6,3-1.2,4.2-1.6
			c1.7-0.6,3.1-1.3,4.2-2c1.2-0.7,2.8-1.4,4.9-2l12.9-4.4c9.4-2.7,18.1-5.2,25.9-7.5c7.9-2.3,16.7-4.9,26.6-7.9
			c7.1-1.7,14.1-3.4,20.9-5c6.8-1.7,13.9-3.6,21.2-5.7c0.2,0,0.2-0.1-0.2-0.3c-0.3-0.2-0.3-0.4,0.2-0.6c1.3-0.4,2.4-1.2,3.3-2.2
			c0.9-1,1.9-1.8,3-2.2c-0.2-0.8-0.5-1.5-0.8-2c-0.3-0.5-0.4-1.2-0.2-2c-0.2,0.2-0.3,0-0.2-0.6c0.1-0.6-0.1-1.3-0.5-1.9h-1.3
			c-0.6-0.2-1.2-0.5-1.6-0.9c-0.4-0.4-0.9-0.8-1.6-1.3c-1.7,0-3.9,0.1-6.8,0.2c-2.8,0.1-5.1,0.4-6.8,0.8c-5.4,0.8-11.1,1.9-17,3.3
			c-5.9,1.4-11.3,2.8-16.3,4.2c-1,0.2-3.8,0.8-8.2,1.7s-9.1,2-14,3.3c-4.9,1.3-9.5,2.4-13.7,3.5c-4.2,1-6.4,1.8-6.6,2.2
			c-4.6,1.3-9.3,2.9-14,4.9c-4.7,2-9.4,3.9-14,5.8c-4.4,1-8.9,2.6-13.4,4.6c-4.5,2-8.9,3.9-13,5.8c-2.1,1-4.6,2.1-7.4,3.3
			C929.7,389.7,927.4,391.5,925.8,393.8z"/>
	</g>
	<polygon class="st10" points="361.5,961.8 320,1005.8 264.4,1026.2 288.9,1073.7 284.5,1130.3 341.2,1115.7 394,1130.3 
		404.5,1073.7 441.6,1026.2 391.4,1005.8 	"/>
	<polygon class="st10" points="2545.4,473 2597.1,517 2657.4,537.4 2643.8,584.9 2661.4,641.5 2601.3,626.9 2551.9,641.5 
		2528.3,584.9 2480.2,537.4 2525.7,517 	"/>
	<polygon class="st15" points="527.7,723 500.9,736.9 472.3,739 474.3,762.3 461.7,786.1 489.8,786.6 510.7,799.2 526,776.2 
		551.5,760.2 532.8,745.5 	"/>
</g>
</svg>
